<svg width="175" height="174" viewBox="0 0 175 174" fill="none" xmlns="http://www.w3.org/2000/svg">
<g id="Asset 22 1" clip-path="url(#clip0_675_1139)">
<g id="Layer_1-2">
<path id="Vector" d="M153.149 148.228C150.394 148.228 147.146 146.654 143.799 144.98C139.862 143.012 135.728 140.945 131.201 140.945C126.673 140.945 122.638 143.012 118.602 144.98C115.256 146.654 112.106 148.228 109.35 148.228C106.594 148.228 103.445 146.654 99.9999 144.98C96.0628 143.012 91.929 140.945 87.4014 140.945C82.8739 140.945 78.8384 143.012 74.803 144.98C71.4566 146.654 68.3069 148.228 65.4526 148.228C62.5983 148.228 59.5471 146.654 56.2006 144.98C52.2636 143.012 48.1298 140.945 43.6022 140.945C39.0747 140.945 35.0392 143.012 31.0038 144.98C27.6573 146.654 24.5077 148.228 21.6534 148.228C18.7991 148.228 15.7479 146.654 12.303 144.98C8.36601 143.012 4.23215 140.945 -0.29541 140.945V148.228C2.4605 148.228 5.6101 149.803 9.05498 151.476C12.992 153.445 17.1258 155.512 21.6534 155.512C26.181 155.512 30.2164 153.445 34.2518 151.476C37.5983 149.803 40.7479 148.228 43.6022 148.228C46.4566 148.228 49.6062 149.803 52.9526 151.476C56.8896 153.445 61.0235 155.512 65.551 155.512C70.0786 155.512 74.114 153.445 78.1495 151.476C81.4959 149.803 84.6455 148.228 87.4014 148.228C90.1573 148.228 93.3069 149.803 96.7518 151.476C100.689 153.445 104.823 155.512 109.35 155.512C113.878 155.512 117.913 153.445 121.949 151.476C125.295 149.803 128.445 148.228 131.299 148.228C134.153 148.228 137.205 149.803 140.551 151.476C144.488 153.445 148.622 155.512 153.149 155.512C157.677 155.512 161.712 153.445 165.748 151.476C169.094 149.803 172.244 148.228 175.098 148.228V140.945C170.571 140.945 166.535 143.012 162.5 144.98C159.153 146.654 156.004 148.228 153.149 148.228Z" fill="#007E91"/>
<path id="Vector_2" d="M153.149 166.437C150.394 166.437 147.146 164.862 143.799 163.189C139.862 161.22 135.728 159.154 131.201 159.154C126.673 159.154 122.638 161.22 118.602 163.189C115.256 164.862 112.106 166.437 109.35 166.437C106.594 166.437 103.445 164.862 99.9999 163.189C96.0628 161.22 91.929 159.154 87.4014 159.154C82.8739 159.154 78.8384 161.22 74.803 163.189C71.4566 164.862 68.3069 166.437 65.4526 166.437C62.5983 166.437 59.5471 164.862 56.2006 163.189C52.2636 161.22 48.1298 159.154 43.6022 159.154C39.0747 159.154 35.0392 161.22 31.0038 163.189C27.6573 164.862 24.5077 166.437 21.6534 166.437C18.7991 166.437 15.7479 164.862 12.303 163.189C8.36601 161.22 4.23215 159.154 -0.29541 159.154V166.437C2.4605 166.437 5.6101 168.012 9.05498 169.685C12.992 171.654 17.1258 173.72 21.6534 173.72C26.181 173.72 30.2164 171.654 34.2518 169.685C37.5983 168.012 40.7479 166.437 43.6022 166.437C46.4566 166.437 49.6062 168.012 52.9526 169.685C56.8896 171.654 61.0235 173.72 65.551 173.72C70.0786 173.72 74.114 171.654 78.1495 169.685C81.4959 168.012 84.6455 166.437 87.4014 166.437C90.1573 166.437 93.3069 168.012 96.7518 169.685C100.689 171.654 104.823 173.72 109.35 173.72C113.878 173.72 117.913 171.654 121.949 169.685C125.295 168.012 128.445 166.437 131.299 166.437C134.153 166.437 137.205 168.012 140.551 169.685C144.488 171.654 148.622 173.72 153.149 173.72C157.677 173.72 161.712 171.654 165.748 169.685C169.094 168.012 172.244 166.437 175.098 166.437V159.154C170.571 159.154 166.535 161.22 162.5 163.189C159.153 164.862 156.004 166.437 153.149 166.437Z" fill="#007E91"/>
<path id="Vector_3" d="M61.2205 64.2717L84.7442 68.7992L86.1221 61.6142L62.5985 57.0866C43.1103 53.248 35.63 37.2047 33.4646 28.7402L159.449 52.5591L153.937 74.6063L132.874 70.5709L131.496 77.7559L159.35 83.0709L168.406 46.8504L69.5867 28.1496L90.256 4.82283L84.7442 0L61.4174 26.6732L25.4922 19.8819V24.311C25.4922 33.0709 33.9568 58.9567 61.2205 64.3701V64.2717Z" fill="#007E91"/>
<path id="Vector_4" d="M124.902 105.217L123.425 112.402L167.717 121.949V133.661H175V116.142L124.902 105.217Z" fill="#007E91"/>
<path id="Vector_5" d="M7.28346 87.1063L78.8386 102.657L80.315 95.5709L0 78.0512V133.661H7.28346V87.1063Z" fill="#007E91"/>
<path id="Vector_6" d="M83.858 86.2205C83.858 98.3268 93.7006 108.071 105.708 108.071C115.059 108.071 122.933 102.165 126.082 93.9961L141.437 97.0472L142.913 89.8622L127.559 86.811C127.559 86.811 127.559 86.4173 127.559 86.1221C127.559 74.0158 117.716 64.2717 105.708 64.2717C96.358 64.2717 88.484 70.1772 85.3344 78.3465L15.2557 64.3701L13.7793 71.5551L83.858 85.5315C83.858 85.5315 83.858 85.9252 83.858 86.2205ZM105.708 71.6536C113.779 71.6536 120.275 78.1496 120.275 86.2205C120.275 94.2913 113.779 100.787 105.708 100.787C97.6376 100.787 91.1415 94.2913 91.1415 86.2205C91.1415 78.1496 97.6376 71.6536 105.708 71.6536Z" fill="#007E91"/>
<path id="Vector_7" d="M109.35 82.5787H102.067V89.8622H109.35V82.5787Z" fill="#007E91"/>
</g>
</g>
<defs>
<clipPath id="clip0_675_1139">
<rect width="175" height="173.72" fill="white"/>
</clipPath>
</defs>
</svg>
