<svg width="70" height="49" viewBox="0 0 70 49" fill="none" xmlns="http://www.w3.org/2000/svg">
<circle cx="46" cy="24.1223" r="24" fill="#333370" fill-opacity="0.1"/>
<path d="M3.4375 32.6726L9.73735 8.76313H37.8077" stroke="#333370" stroke-width="2" stroke-miterlimit="10" stroke-linecap="round" stroke-linejoin="round"/>
<mask id="mask0_730_1256" style="mask-type:luminance" maskUnits="userSpaceOnUse" x="0" y="0" width="48" height="44">
<path d="M46.8252 42.6984V1.12229H1V42.6984H46.8252Z" fill="white" stroke="white" stroke-width="2"/>
</mask>
<g mask="url(#mask0_730_1256)">
<path d="M40.6089 18.3308L47.1247 43.0602H0.700684L2.34897 36.8046" stroke="#333370" stroke-width="2" stroke-miterlimit="10" stroke-linecap="round" stroke-linejoin="round"/>
</g>
<path d="M14.7021 15.2711H31.4826" stroke="#333370" stroke-width="2" stroke-miterlimit="10" stroke-linecap="round" stroke-linejoin="round"/>
<path d="M13.7681 20.5609H29.2603" stroke="#333370" stroke-width="2" stroke-miterlimit="10" stroke-linecap="round" stroke-linejoin="round"/>
<path d="M12.647 25.8507H27.3068" stroke="#333370" stroke-width="2" stroke-miterlimit="10" stroke-linecap="round" stroke-linejoin="round"/>
<mask id="mask1_730_1256" style="mask-type:luminance" maskUnits="userSpaceOnUse" x="0" y="0" width="48" height="44">
<path d="M46.8252 42.6984V1.12229H1V42.6984H46.8252Z" fill="white" stroke="white" stroke-width="2"/>
</mask>
<g mask="url(#mask1_730_1256)">
<mask id="path-9-inside-1_730_1256" fill="white">
<path d="M11.0282 37.7574C11.641 36.8103 12.2689 35.8708 12.9094 34.9392C13.383 34.2502 13.8629 33.564 14.3706 32.8953C14.5476 32.6623 14.7621 32.385 14.8927 32.2405C14.9908 32.1317 15.0874 32.0199 15.2171 31.9427C15.3395 31.8698 15.4037 31.852 15.4729 31.8909C15.4008 31.8503 15.503 31.9679 15.5239 32.0183C15.6194 32.2485 15.5615 32.5331 15.5399 32.7699C15.4931 33.2806 15.4287 33.7897 15.3771 34.2999C15.2867 35.1941 15.0278 36.567 16.1139 37.0487C16.7162 37.3158 17.3492 37.0174 17.8839 36.7512C18.4351 36.4768 18.9541 36.204 19.5344 35.9871C19.6953 35.927 19.7664 35.9508 19.5283 35.9C19.427 35.8785 19.5085 35.7883 19.5063 35.8905C19.5037 36.0032 19.6568 36.2218 19.6991 36.3463C19.8269 36.7221 19.9358 37.1185 20.1528 37.4622C21.0641 38.9058 23.634 38.398 25.0448 37.9751C25.8975 37.7195 25.5323 36.4862 24.6723 36.7441C24.1309 36.9063 23.5587 37.0286 22.9924 37.0843C22.58 37.1248 22.1261 37.1555 21.7237 37.043C21.4131 36.9561 21.3408 36.8286 21.2303 36.5357C20.9713 35.8498 20.7848 34.7187 19.7675 34.6751C19.1723 34.6496 18.5445 34.9454 18.0368 35.1998C17.7472 35.3449 17.4667 35.5044 17.1767 35.6489C17.0499 35.712 16.9216 35.7784 16.7881 35.8294C16.5145 35.9339 16.7384 35.8676 16.7286 35.9051C16.7664 35.7604 16.7044 35.5273 16.7085 35.3699C16.7149 35.1186 16.7283 34.8675 16.7488 34.6168C16.7895 34.122 16.8554 33.6292 16.9057 33.1352C17.0006 32.2034 17.0153 30.9356 15.7718 30.6407C14.808 30.4122 14.0978 31.0866 13.5786 31.7189C13.0765 32.3302 12.6211 32.9742 12.1699 33.6172C11.362 34.7685 10.5799 35.9358 9.81839 37.113C9.35947 37.8224 10.5701 38.4655 11.0282 37.7574Z"/>
</mask>
<path d="M11.0282 37.7574C11.641 36.8103 12.2689 35.8708 12.9094 34.9392C13.383 34.2502 13.8629 33.564 14.3706 32.8953C14.5476 32.6623 14.7621 32.385 14.8927 32.2405C14.9908 32.1317 15.0874 32.0199 15.2171 31.9427C15.3395 31.8698 15.4037 31.852 15.4729 31.8909C15.4008 31.8503 15.503 31.9679 15.5239 32.0183C15.6194 32.2485 15.5615 32.5331 15.5399 32.7699C15.4931 33.2806 15.4287 33.7897 15.3771 34.2999C15.2867 35.1941 15.0278 36.567 16.1139 37.0487C16.7162 37.3158 17.3492 37.0174 17.8839 36.7512C18.4351 36.4768 18.9541 36.204 19.5344 35.9871C19.6953 35.927 19.7664 35.9508 19.5283 35.9C19.427 35.8785 19.5085 35.7883 19.5063 35.8905C19.5037 36.0032 19.6568 36.2218 19.6991 36.3463C19.8269 36.7221 19.9358 37.1185 20.1528 37.4622C21.0641 38.9058 23.634 38.398 25.0448 37.9751C25.8975 37.7195 25.5323 36.4862 24.6723 36.7441C24.1309 36.9063 23.5587 37.0286 22.9924 37.0843C22.58 37.1248 22.1261 37.1555 21.7237 37.043C21.4131 36.9561 21.3408 36.8286 21.2303 36.5357C20.9713 35.8498 20.7848 34.7187 19.7675 34.6751C19.1723 34.6496 18.5445 34.9454 18.0368 35.1998C17.7472 35.3449 17.4667 35.5044 17.1767 35.6489C17.0499 35.712 16.9216 35.7784 16.7881 35.8294C16.5145 35.9339 16.7384 35.8676 16.7286 35.9051C16.7664 35.7604 16.7044 35.5273 16.7085 35.3699C16.7149 35.1186 16.7283 34.8675 16.7488 34.6168C16.7895 34.122 16.8554 33.6292 16.9057 33.1352C17.0006 32.2034 17.0153 30.9356 15.7718 30.6407C14.808 30.4122 14.0978 31.0866 13.5786 31.7189C13.0765 32.3302 12.6211 32.9742 12.1699 33.6172C11.362 34.7685 10.5799 35.9358 9.81839 37.113C9.35947 37.8224 10.5701 38.4655 11.0282 37.7574Z" fill="#842E2B"/>
<path d="M11.0282 37.7574L9.34895 36.6711L9.34902 36.671L11.0282 37.7574ZM12.9094 34.9392L14.5575 36.0721L14.5575 36.0722L12.9094 34.9392ZM14.3706 32.8953L12.7777 31.6859L12.7779 31.6856L14.3706 32.8953ZM14.8927 32.2405L16.378 33.5798L16.3766 33.5814L14.8927 32.2405ZM15.2171 31.9427L16.2403 33.6612L16.2398 33.6615L15.2171 31.9427ZM15.4729 31.8909L16.454 30.1481L14.4931 33.6344L15.4729 31.8909ZM15.5239 32.0183L17.3709 31.2512L17.3711 31.2516L15.5239 32.0183ZM15.5399 32.7699L13.5482 32.5878L13.5482 32.5876L15.5399 32.7699ZM15.3771 34.2999L17.367 34.501L17.367 34.5011L15.3771 34.2999ZM16.1139 37.0487L16.9248 35.2204L16.9249 35.2205L16.1139 37.0487ZM17.8839 36.7512L18.7753 38.5416L18.7753 38.5416L17.8839 36.7512ZM19.5344 35.9871L18.8342 34.1137L18.8348 34.1134L19.5344 35.9871ZM19.5283 35.9L19.944 33.9437L19.945 33.9439L19.5283 35.9ZM19.5063 35.8905L21.5058 35.9344L21.5058 35.9353L19.5063 35.8905ZM19.6991 36.3463L21.5927 35.7024L21.5927 35.7025L19.6991 36.3463ZM20.1528 37.4622L18.4616 38.5299L18.4616 38.5298L20.1528 37.4622ZM25.0448 37.9751L25.6191 39.8909L25.6191 39.8909L25.0448 37.9751ZM24.6723 36.7441L25.2468 38.6598L25.2464 38.6599L24.6723 36.7441ZM22.9924 37.0843L22.7964 35.0939L22.7967 35.0938L22.9924 37.0843ZM21.7237 37.043L21.1851 38.9691L21.1848 38.969L21.7237 37.043ZM21.2303 36.5357L23.1013 35.8291L23.1015 35.8297L21.2303 36.5357ZM19.7675 34.6751L19.6819 36.6733L19.6818 36.6733L19.7675 34.6751ZM18.0368 35.1998L18.9326 36.988L18.9324 36.9881L18.0368 35.1998ZM17.1767 35.6489L18.0685 37.4391L18.0681 37.4393L17.1767 35.6489ZM16.7881 35.8294L16.0744 33.9611L16.0745 33.961L16.7881 35.8294ZM16.7085 35.3699L18.7078 35.4212L18.7078 35.4221L16.7085 35.3699ZM16.7488 34.6168L14.7555 34.4534L14.7555 34.4532L16.7488 34.6168ZM16.9057 33.1352L14.9159 32.9328L14.916 32.9325L16.9057 33.1352ZM15.7718 30.6407L16.2332 28.6946L16.2333 28.6947L15.7718 30.6407ZM13.5786 31.7189L15.1241 32.9882L15.1241 32.9882L13.5786 31.7189ZM12.1699 33.6172L10.5327 32.4684L10.5328 32.4683L12.1699 33.6172ZM9.81839 37.113L11.4976 38.1993L11.4976 38.1994L9.81839 37.113ZM9.34902 36.671C9.97259 35.7072 10.6109 34.7522 11.2613 33.8061L14.5575 36.0722C13.9268 36.9895 13.3094 37.9134 12.7074 38.8438L9.34902 36.671ZM11.2612 33.8062C11.739 33.1111 12.2406 32.3933 12.7777 31.6859L15.9634 34.1048C15.4852 34.7346 15.0269 35.3893 14.5575 36.0721L11.2612 33.8062ZM12.7779 31.6856C12.9412 31.4706 13.2098 31.1199 13.4088 30.8996L16.3766 33.5814C16.3145 33.6502 16.1539 33.854 15.9632 34.1051L12.7779 31.6856ZM13.4074 30.9012C13.4438 30.8608 13.751 30.4878 14.1945 30.2239L16.2398 33.6615C16.3518 33.5948 16.4196 33.5308 16.4378 33.5132C16.4468 33.5044 16.4482 33.5024 16.4371 33.5144C16.4318 33.5203 16.4249 33.5278 16.4148 33.539C16.4097 33.5447 16.4045 33.5505 16.3982 33.5574C16.3923 33.5641 16.3852 33.5719 16.378 33.5798L13.4074 30.9012ZM14.194 30.2242C14.2759 30.1755 14.5598 30.0034 14.9392 29.9207C15.4591 29.8074 15.9924 29.8887 16.4527 30.1473L14.4931 33.6344C14.6533 33.7245 14.8658 33.8113 15.1235 33.8501C15.3812 33.8888 15.6101 33.8684 15.7907 33.829C15.9598 33.7922 16.0828 33.7396 16.1429 33.7116C16.1756 33.6964 16.2002 33.6835 16.2148 33.6756C16.2295 33.6676 16.2386 33.6622 16.2403 33.6612L14.194 30.2242ZM14.4917 33.6337C14.5279 33.6541 14.5944 33.6899 14.6824 33.7272C14.7545 33.7576 14.9331 33.8292 15.1755 33.8632C15.3767 33.8914 15.979 33.9456 16.5815 33.5317C17.278 33.0532 17.4315 32.3426 17.446 31.963C17.4592 31.6195 17.3787 31.36 17.3494 31.2703C17.3111 31.1535 17.2701 31.0656 17.2484 31.0214C17.2053 30.9332 17.166 30.8708 17.1593 30.8602C17.148 30.8421 17.1399 30.8301 17.1452 30.838C17.1452 30.8381 17.1602 30.8605 17.1723 30.8791C17.1853 30.899 17.2107 30.9383 17.239 30.9868C17.2624 31.0268 17.3179 31.1234 17.3709 31.2512L13.6768 32.7853C13.7247 32.9005 13.7723 32.9824 13.7864 33.0065C13.8055 33.0391 13.82 33.0613 13.8216 33.0637C13.8558 33.1161 13.7849 33.0083 13.7676 32.9807C13.7514 32.9548 13.7039 32.8785 13.6552 32.7788C13.6307 32.7287 13.5874 32.6356 13.5477 32.5143C13.5169 32.4201 13.4357 32.1567 13.4489 31.8101C13.4636 31.4275 13.6181 30.7146 14.3165 30.2348C14.921 29.8195 15.5262 29.8732 15.7315 29.902C16.1424 29.9597 16.4364 30.1382 16.454 30.1481L14.4917 33.6337ZM17.3711 31.2516C17.5805 31.756 17.5844 32.2211 17.5742 32.4725C17.5687 32.6073 17.5564 32.7269 17.548 32.8033C17.5368 32.905 17.5348 32.9162 17.5315 32.9522L13.5482 32.5876C13.5528 32.5373 13.5579 32.4909 13.5618 32.4557C13.5668 32.4113 13.5685 32.3974 13.5719 32.3665C13.5775 32.3158 13.5777 32.3054 13.5775 32.3107C13.5772 32.3171 13.5752 32.3663 13.5845 32.4422C13.594 32.5199 13.6172 32.6417 13.6767 32.785L17.3711 31.2516ZM17.5315 32.952C17.4864 33.4462 17.4088 34.0869 17.367 34.501L13.3873 34.0988C13.4485 33.4924 13.4999 33.1151 13.5482 32.5878L17.5315 32.952ZM17.367 34.5011C17.3546 34.6234 17.3377 34.7692 17.3264 34.8731C17.3135 34.9899 17.3031 35.0931 17.2956 35.1913C17.28 35.3955 17.2822 35.5225 17.291 35.5986C17.2998 35.6744 17.3063 35.6178 17.24 35.5079C17.1564 35.3695 17.0303 35.2672 16.9248 35.2204L15.3031 38.8769C13.8777 38.2448 13.4241 36.9777 13.3176 36.0593C13.2254 35.264 13.3588 34.3806 13.3873 34.0987L17.367 34.5011ZM16.9249 35.2205C16.8229 35.1752 16.7216 35.1565 16.6407 35.1536C16.5668 35.151 16.5295 35.1621 16.5429 35.1588C16.5578 35.1551 16.601 35.1423 16.6836 35.1072C16.7678 35.0713 16.8612 35.0263 16.9926 34.9608L18.7753 38.5416C18.5235 38.6669 18.0479 38.9067 17.5056 39.0412C16.9255 39.185 16.1332 39.2452 15.303 38.8769L16.9249 35.2205ZM16.9925 34.9609C17.4899 34.7132 18.1298 34.3769 18.8342 34.1137L20.2345 37.8605C19.7785 38.031 19.3802 38.2404 18.7753 38.5416L16.9925 34.9609ZM18.8348 34.1134C18.9601 34.0667 19.0632 34.0382 19.1057 34.0265C19.146 34.0155 19.1067 34.026 19.0728 34.0365C19.0542 34.0423 18.9848 34.0639 18.8976 34.1007C18.8681 34.1131 18.5701 34.2301 18.2855 34.5073C18.1264 34.6624 17.8473 34.9867 17.7317 35.4951C17.6017 36.0669 17.7406 36.5904 17.9679 36.9681C18.1646 37.2951 18.4057 37.4839 18.5244 37.5679C18.6568 37.6616 18.773 37.7194 18.8379 37.7494C18.9653 37.8083 19.0693 37.8393 19.0994 37.8482C19.1418 37.8608 19.1739 37.8686 19.1846 37.8711C19.1936 37.8733 19.2181 37.8788 19.1116 37.8561L19.945 33.9439C19.9575 33.9466 20.0624 33.9682 20.1201 33.9821C20.1429 33.9876 20.1851 33.998 20.2359 34.013C20.2743 34.0244 20.3846 34.0576 20.5167 34.1187C20.5371 34.1282 21.0543 34.339 21.3954 34.9061C21.6233 35.2849 21.7624 35.8093 21.6321 36.3821C21.5163 36.8914 21.2366 37.2168 21.0764 37.3728C20.7898 37.652 20.4883 37.771 20.4537 37.7856C20.3615 37.8245 20.2856 37.8483 20.2591 37.8565C20.2257 37.8669 20.1977 37.8747 20.1874 37.8776C20.1809 37.8794 20.1751 37.881 20.1717 37.8819C20.1671 37.8832 20.1662 37.8834 20.1639 37.884C20.1553 37.8864 20.1892 37.8775 20.2339 37.8608L18.8348 34.1134ZM19.1127 37.8564C18.791 37.788 18.2204 37.5831 17.8222 36.9903C17.4189 36.3899 17.3316 35.5466 17.7625 34.8243C17.9665 34.4823 18.3722 34.0494 19.0331 33.8952C19.7828 33.7203 20.4635 33.9971 20.8897 34.411C21.2587 34.7693 21.3925 35.1694 21.444 35.3759C21.5016 35.6063 21.5086 35.8041 21.5058 35.9344L17.5067 35.8467C17.5044 35.9513 17.5094 36.1297 17.5633 36.3455C17.6113 36.5374 17.7399 36.9279 18.1031 37.2806C18.5236 37.689 19.1979 37.9642 19.9419 37.7906C20.5971 37.6378 20.9975 37.2092 21.1977 36.8735C21.6212 36.1636 21.5327 35.3406 21.1427 34.7599C20.7577 34.1868 20.215 34.0013 19.944 33.9437L19.1127 37.8564ZM21.5058 35.9353C21.5082 35.8271 21.5009 35.7341 21.4916 35.6609C21.4823 35.5873 21.4698 35.525 21.4583 35.4764C21.436 35.3824 21.411 35.3128 21.3972 35.2767C21.3825 35.2383 21.3706 35.2125 21.3666 35.2039C21.3622 35.1946 21.3609 35.1923 21.3654 35.2011C21.3703 35.2106 21.3761 35.2217 21.3884 35.245C21.3985 35.2643 21.4155 35.2965 21.4327 35.3302C21.4499 35.364 21.474 35.4123 21.4993 35.4679C21.5236 35.5212 21.5589 35.603 21.5927 35.7024L17.8056 36.9902C17.8448 37.1053 17.8847 37.1777 17.8689 37.1466C17.8658 37.1406 17.8612 37.1316 17.8493 37.1092C17.8397 37.0908 17.8231 37.0595 17.8064 37.0269C17.777 36.9696 17.7163 36.8497 17.6616 36.7069C17.6331 36.6324 17.5962 36.5263 17.5659 36.3982C17.5369 36.2757 17.5015 36.0823 17.5068 35.8458L21.5058 35.9353ZM21.5927 35.7025C21.6278 35.8059 21.6669 35.9261 21.6921 36.0024C21.7214 36.0909 21.7447 36.159 21.767 36.2189C21.8122 36.3405 21.8377 36.3846 21.8441 36.3947L18.4616 38.5298C18.0813 37.9273 17.8778 37.2024 17.8056 36.9901L21.5927 35.7025ZM21.844 36.3946C21.7348 36.2216 21.6846 36.4181 22.4129 36.4186C23.0596 36.419 23.838 36.2489 24.4706 36.0593L25.6191 39.8909C24.8408 40.1242 23.6289 40.4194 22.4101 40.4186C21.273 40.4178 19.4822 40.1464 18.4616 38.5299L21.844 36.3946ZM24.4706 36.0593C24.1886 36.1438 23.8612 36.3708 23.671 36.7592C23.4992 37.1101 23.5021 37.4643 23.5848 37.7405C23.6676 38.0171 23.8608 38.3167 24.2 38.516C24.5748 38.7363 24.9716 38.7423 25.2468 38.6598L24.0979 34.8283C24.803 34.6169 25.5679 34.6804 26.2265 35.0673C26.8494 35.4334 27.2418 36.0089 27.4168 36.5935C27.5917 37.1778 27.5798 37.8722 27.2635 38.5181C26.9289 39.2016 26.3274 39.6786 25.6191 39.8909L24.4706 36.0593ZM25.2464 38.6599C24.6029 38.8527 23.903 39.0044 23.188 39.0747L22.7967 35.0938C23.2144 35.0528 23.659 34.9599 24.0983 34.8282L25.2464 38.6599ZM23.1883 39.0746C22.7952 39.1133 21.9921 39.1947 21.1851 38.9691L22.2622 35.1168C22.237 35.1098 22.2611 35.1204 22.3666 35.1211C22.473 35.1217 22.604 35.1128 22.7964 35.0939L23.1883 39.0746ZM21.1848 38.969C20.8196 38.8668 20.3251 38.6643 19.9089 38.1972C19.5599 37.8056 19.4054 37.3646 19.3591 37.2418L23.1015 35.8297C23.1252 35.8924 23.121 35.8755 23.1002 35.8339C23.0747 35.7827 23.0114 35.6664 22.8951 35.5359C22.6202 35.2275 22.3171 35.1322 22.2626 35.1169L21.1848 38.969ZM19.3593 37.2423C19.3108 37.1139 19.2683 36.9867 19.2354 36.887C19.1986 36.7752 19.1736 36.6976 19.144 36.6116C19.0854 36.441 19.0504 36.3639 19.0318 36.3301C19.0149 36.2994 19.0565 36.389 19.1923 36.4904C19.2633 36.5434 19.3488 36.591 19.4446 36.6249C19.54 36.6586 19.6228 36.6708 19.6819 36.6733L19.8531 32.677C21.3028 32.7391 22.1289 33.6628 22.5348 34.399C22.7223 34.7392 22.846 35.0762 22.927 35.312C23.0357 35.6284 23.046 35.6827 23.1013 35.8291L19.3593 37.2423ZM19.6818 36.6733C19.731 36.6754 19.6923 36.6638 19.5265 36.7215C19.3644 36.7779 19.1806 36.8637 18.9326 36.988L17.1409 33.4117C17.5751 33.1942 18.6594 32.6258 19.8532 32.677L19.6818 36.6733ZM18.9324 36.9881C18.8149 37.0469 18.6958 37.1105 18.5485 37.1891C18.409 37.2635 18.2424 37.3524 18.0685 37.4391L16.285 33.8587C16.401 33.8009 16.5196 33.7378 16.6653 33.6601C16.8031 33.5865 16.9691 33.4978 17.1411 33.4116L18.9324 36.9881ZM18.0681 37.4393C17.9855 37.4804 17.7493 37.6032 17.5017 37.6978L16.0745 33.961C16.0727 33.9617 16.0853 33.9569 16.123 33.9389C16.1414 33.9302 16.1627 33.9197 16.1903 33.906C16.2041 33.8991 16.2182 33.8921 16.2343 33.884C16.2499 33.8762 16.2675 33.8674 16.2854 33.8585L18.0681 37.4393ZM17.5018 37.6977C17.4084 37.7334 17.4803 37.7096 17.5793 37.6587C17.607 37.6445 17.707 37.593 17.8251 37.5077C17.8831 37.4659 17.9996 37.3776 18.1245 37.2418C18.2252 37.1324 18.4951 36.8194 18.6051 36.3182C18.6659 36.0413 18.6755 35.7133 18.5825 35.369C18.4901 35.0263 18.3195 34.7539 18.1389 34.5532C17.8126 34.1903 17.4466 34.0502 17.3146 34.0039C17.1496 33.9461 17.0131 33.9231 16.9467 33.9133C16.8712 33.9022 16.8101 33.8978 16.7741 33.8957C16.6722 33.8898 16.5709 33.8945 16.6247 33.893C16.6292 33.8929 16.65 33.8923 16.6749 33.8921C16.6997 33.8919 16.7422 33.8919 16.7941 33.8942C16.8431 33.8964 16.926 33.9018 17.027 33.9178C17.1167 33.932 17.2967 33.9659 17.5075 34.0558C17.7027 34.1391 18.1065 34.3475 18.408 34.8143C18.7578 35.3559 18.7838 35.9509 18.6636 36.4108L14.7935 35.3995C14.6746 35.8547 14.7 36.4458 15.0477 36.9842C15.3471 37.4478 15.7474 37.6537 15.938 37.735C16.1441 37.8229 16.3183 37.8554 16.4016 37.8686C16.496 37.8835 16.5716 37.8882 16.6129 37.8901C16.6889 37.8936 16.7509 37.891 16.7344 37.8915C16.7342 37.8915 16.734 37.8915 16.7335 37.8915C16.733 37.8915 16.7323 37.8915 16.7315 37.8916C16.73 37.8916 16.7274 37.8917 16.7244 37.8918C16.7189 37.8919 16.7085 37.8921 16.6959 37.8923C16.6783 37.8926 16.619 37.8934 16.5447 37.8891C16.5186 37.8876 16.2763 37.8785 15.9923 37.779C15.8589 37.7323 15.4919 37.5916 15.1649 37.2281C14.9841 37.027 14.8133 36.7542 14.7207 36.4111C14.6276 36.0664 14.6372 35.738 14.6981 35.4606C14.8083 34.9584 15.0789 34.6444 15.1807 34.5337C15.3067 34.3968 15.4248 34.3071 15.4849 34.2637C15.6073 34.1754 15.7137 34.1202 15.7502 34.1014C15.8844 34.0324 16.0309 33.9777 16.0744 33.9611L17.5018 37.6977ZM14.7935 35.3995C14.7654 35.5071 14.7531 35.5972 14.7472 35.6596C14.7413 35.7228 14.7406 35.772 14.7409 35.8019C14.7412 35.8322 14.7426 35.8527 14.7431 35.8593C14.7436 35.866 14.7437 35.8661 14.7425 35.8548C14.7411 35.8419 14.7396 35.8289 14.7363 35.8005C14.7335 35.7766 14.7292 35.7394 14.7252 35.6995C14.7212 35.6591 14.7163 35.6056 14.7129 35.5451C14.7095 35.4852 14.7068 35.407 14.7092 35.3177L18.7078 35.4221C18.7101 35.3333 18.703 35.2774 18.7052 35.2997C18.7058 35.306 18.7069 35.3161 18.7097 35.34C18.712 35.3594 18.7161 35.3946 18.7198 35.4297C18.727 35.4966 18.7393 35.6206 18.7407 35.7633C18.742 35.8981 18.7355 36.1357 18.6636 36.4108L14.7935 35.3995ZM14.7091 35.3186C14.7165 35.0306 14.7319 34.7421 14.7555 34.4534L18.7422 34.7803C18.7247 34.9928 18.7133 35.2065 18.7078 35.4212L14.7091 35.3186ZM14.7555 34.4532C14.7969 33.949 14.8759 33.3263 14.9159 32.9328L18.8954 33.3376C18.8349 33.9322 18.782 34.295 18.7421 34.7805L14.7555 34.4532ZM14.916 32.9325C14.9362 32.7338 14.9463 32.5699 14.9438 32.4307C14.9425 32.3635 14.9384 32.3119 14.9334 32.2738C14.9284 32.2356 14.9235 32.2189 14.9237 32.2193C14.9243 32.2216 14.954 32.3175 15.061 32.4263C15.1132 32.4793 15.1696 32.5205 15.2224 32.5494C15.274 32.5776 15.3077 32.5861 15.3103 32.5867L16.2333 28.6947C16.874 28.8466 17.4518 29.1527 17.9128 29.6214C18.3639 30.08 18.6171 30.6063 18.7576 31.0789C19.0192 31.9583 18.9446 32.8544 18.8954 33.3378L14.916 32.9325ZM15.3104 32.5867C15.3482 32.5957 15.4108 32.6 15.4781 32.5869C15.5381 32.5752 15.5612 32.5576 15.542 32.5692C15.5197 32.5827 15.4691 32.6182 15.3903 32.6938C15.3121 32.769 15.2251 32.8653 15.1241 32.9882L12.033 30.4495C12.5303 29.844 13.9808 28.1606 16.2332 28.6946L15.3104 32.5867ZM15.1241 32.9882C14.6765 33.5333 14.2613 34.1186 13.8069 34.7661L10.5328 32.4683C10.9809 31.8298 11.4765 31.1271 12.033 30.4495L15.1241 32.9882ZM13.807 34.7661C13.0156 35.8939 12.2476 37.04 11.4976 38.1993L8.13913 36.0267C8.91228 34.8315 9.70838 33.6431 10.5327 32.4684L13.807 34.7661ZM11.4976 38.1994C11.7104 37.8704 11.7995 37.3813 11.621 36.9075C11.4712 36.5098 11.2018 36.2984 11.0186 36.201C10.8287 36.1 10.5669 36.0305 10.2554 36.0819C9.89834 36.1409 9.55558 36.3517 9.34895 36.6711L12.7075 38.8437C11.746 40.33 10.0577 40.2205 9.14023 39.7325C8.65451 39.4742 8.13987 39.0133 7.8778 38.3176C7.58707 37.5458 7.69688 36.7103 8.13914 36.0267L11.4976 38.1994Z" fill="#333370" mask="url(#path-9-inside-1_730_1256)"/>
<path d="M38.9574 18.4235L33.6101 32.2264L29.3345 30.8513L38.8893 6.18778" stroke="#333370" stroke-width="2" stroke-miterlimit="10" stroke-linecap="round" stroke-linejoin="round"/>
<path d="M44.2837 8.8956L45.1755 6.59339C45.4351 5.92341 45.0494 5.18866 44.3142 4.95214L39.7932 3.49813C39.058 3.26161 38.2515 3.61302 37.992 4.28292C37.7325 4.9529 38.1181 5.68765 38.8534 5.92409L42.0431 6.95L38.2187 16.8217C37.9592 17.4917 38.3448 18.2264 39.0801 18.4629C39.8154 18.6994 40.6218 18.348 40.8813 17.6781L43.085 11.9898" stroke="#333370" stroke-width="2" stroke-miterlimit="10" stroke-linecap="round" stroke-linejoin="round"/>
<path d="M31.1067 35.8022L28.8198 35.0667L29.3348 30.8513L33.6103 32.2264L31.1067 35.8022Z" stroke="#333370" stroke-width="2" stroke-miterlimit="10" stroke-linecap="round" stroke-linejoin="round"/>
<path d="M29.9627 35.4345L29.2432 37.2917" stroke="#333370" stroke-width="2" stroke-miterlimit="10" stroke-linecap="round" stroke-linejoin="round"/>
<path d="M43.5119 4.69409L40.5952 3.7561L41.3913 1.70113C41.6757 0.967316 42.559 0.582366 43.3644 0.841439C44.1699 1.10043 44.5923 1.90531 44.3079 2.63921L43.5119 4.69409Z" stroke="#333370" stroke-width="2" stroke-miterlimit="10" stroke-linecap="round" stroke-linejoin="round"/>
</g>
</svg>
