<svg width="175" height="169" viewBox="0 0 175 169" fill="none" xmlns="http://www.w3.org/2000/svg">
<g id="Asset 26 1" clip-path="url(#clip0_675_1182)">
<g id="Layer_1-2">
<path id="Vector" d="M172.031 162.938H166V168.969H172.031V162.938Z" fill="#007E91"/>
<path id="Vector_2" d="M159.968 147.906H153.937V153.937H159.968V147.906Z" fill="#007E91"/>
<path id="Vector_3" d="M159.968 105.594H153.937V141.782H159.968V105.594Z" fill="#007E91"/>
<path id="Vector_4" d="M147.906 2.96924H141.875V15.0318H147.906V2.96924Z" fill="#007E91"/>
<path id="Vector_5" d="M147.906 27.1873H141.875V39.2498H147.906V27.1873Z" fill="#007E91"/>
<path id="Vector_6" d="M159.968 18.0939H150.875V24.1252H159.968V18.0939Z" fill="#007E91"/>
<path id="Vector_7" d="M138.905 18.0939H129.812V24.1252H138.905V18.0939Z" fill="#007E91"/>
<path id="Vector_8" d="M175 98.7275L171.845 76.6437C171.196 72.1899 168.134 68.5711 163.958 67.0865L73.3961 35.631L80.5408 24.1252C81.0976 23.1045 81.4687 22.0838 81.4687 21.0631C81.4687 19.0218 80.448 17.166 78.685 16.0525L54.3743 0.927937C51.4979 -0.835054 48.0647 0.0928357 46.2089 2.8765L0.92789 75.3447C0.371156 76.3654 0 77.386 0 78.4067C0 80.4481 1.02068 82.3038 2.78367 83.4173L15.0318 91.1188V105.965C9.83563 107.357 5.93849 111.996 5.93849 117.564C5.93849 123.131 9.83563 127.863 15.0318 129.162V153.751H21.0631V129.162C26.2593 127.77 30.1564 123.131 30.1564 117.564C30.1564 111.996 26.2593 107.264 21.0631 105.965V94.8304L27.0016 98.5419C28.0223 99.0987 29.0429 99.4698 30.0636 99.4698C32.105 99.4698 33.9608 98.4491 35.0742 96.6861L60.0345 56.7869L81.8399 64.3028L44.7243 162.937H36.0949V168.969H159.875V162.937H147.813V87.0361L152.638 88.7063L164.236 103.274C165.443 104.759 167.113 105.594 168.876 105.594C172.216 105.594 174.907 102.903 174.907 99.5626C174.907 99.2842 174.907 98.8203 174.907 98.7275H175ZM24.1251 117.656C24.1251 120.997 21.4343 123.688 18.0939 123.688C14.7534 123.688 12.0626 120.997 12.0626 117.656C12.0626 114.316 14.7534 111.625 18.0939 111.625C21.4343 111.625 24.1251 114.316 24.1251 117.656ZM30.2492 93.5313L6.03128 78.4995L51.2195 6.03133L75.3446 21.1559L30.2492 93.5313ZM87.6856 66.3442L95.3871 69.035L59.9417 163.03H51.3123L87.6856 66.3442ZM102.625 100.862L113.481 111.718L102.625 122.574V100.954V100.862ZM114.687 140.575L103.831 129.719L114.687 118.863V140.483V140.575ZM113.481 147.906L102.625 158.762V137.142L113.481 147.998V147.906ZM114.687 104.388L103.831 93.5313L114.687 82.675V104.295V104.388ZM96.5933 162.937H66.4369L96.5933 82.9534V162.937ZM114.687 155.143V162.937H106.893L114.687 155.143ZM120.718 77.6644L126.75 79.7058V162.845H120.718V77.5716V77.6644ZM102.625 86.201V71.3548L113.666 75.1591L102.625 86.201ZM141.874 162.937H132.781V81.8399L141.874 84.9947V162.937ZM156.349 83.6029L63.4677 51.5907L70.1485 40.92L161.917 72.8394C164.051 73.5817 165.536 75.4375 165.814 77.5716L168.969 99.5626L156.257 83.6029H156.349Z" fill="#007E91"/>
<path id="Vector_9" d="M143.299 47.3798L141.331 53.0808L146.418 54.8374L148.386 49.1364L143.299 47.3798Z" fill="#007E91"/>
<path id="Vector_10" d="M89.1854 28.7352L87.2168 34.4362L131.246 49.6396L133.214 43.9386L89.1854 28.7352Z" fill="#007E91"/>
<path id="Vector_11" d="M22.2989 14.0491L5.55664 40.3495L10.6445 43.5883L27.3868 17.288L22.2989 14.0491Z" fill="#007E91"/>
<path id="Vector_12" d="M29.1806 2.38995L26.3755 6.87378L31.4886 10.0725L34.2937 5.58872L29.1806 2.38995Z" fill="#007E91"/>
</g>
</g>
<defs>
<clipPath id="clip0_675_1182">
<rect width="175" height="168.969" fill="white"/>
</clipPath>
</defs>
</svg>
