<svg width="175" height="166" viewBox="0 0 175 166" fill="none" xmlns="http://www.w3.org/2000/svg">
<g id="Asset 24 1" clip-path="url(#clip0_675_1207)">
<g id="Layer_1-2">
<path id="Vector" d="M140 54.1346C140 47.1154 134.327 41.4423 127.308 41.4423V47.7885C130.769 47.7885 133.654 50.6731 133.654 54.1346C133.654 57.5962 130.769 60.4808 127.308 60.4808V66.8269C134.327 66.8269 140 61.1539 140 54.1346Z" fill="#007E91"/>
<path id="Vector_2" d="M166.635 159.135L157.404 136.25C155.962 132.981 152.981 130.962 149.615 130.577V66.1539C151.538 62.5 152.788 58.4616 152.788 54.0385C152.788 40 141.346 28.5577 127.308 28.5577C122.885 28.5577 118.846 29.8077 115.288 31.7308L88.8461 15.5769C87.2115 6.73079 79.4231 -0.0961304 70.0962 -0.0961304C59.6154 -0.0961304 50.9615 8.46156 50.9615 19.0385C50.9615 19.9039 51.0577 20.7693 51.25 21.6346L34.5192 41.4423C24.2308 41.7308 15.9615 50.0962 15.9615 60.4808C15.9615 62.1154 16.25 63.75 16.6346 65.2885L1.82692 87.7885C0.673077 89.6154 0 91.7308 0 93.8462C0 95.9616 0.576923 97.8846 1.73077 99.7116L14.2308 119.615C15.9615 122.404 19.0385 124.135 22.3077 124.135C27.5962 124.135 31.8269 119.808 31.8269 114.615C31.8269 113.269 31.5385 111.923 30.9615 110.673L24.0385 95.4808L35 81.3462L45.9615 95.4808L39.0385 110.673C38.4615 111.923 38.1731 113.269 38.1731 114.615C38.1731 119.904 42.5 124.135 47.6923 124.135C50.9615 124.135 54.0385 122.5 55.7692 119.615L68.2692 99.7116C69.4231 97.8846 70 95.8654 70 93.8462C70 91.7308 69.3269 89.6154 68.1731 87.7885L53.3654 65.2885C53.75 63.75 54.0385 62.1154 54.0385 60.4808C54.0385 59.6154 53.9423 58.75 53.75 57.8846L70.4808 38.077C72.2115 38.077 73.75 37.6923 75.2885 37.3077L101.731 53.4616C101.731 53.4616 101.731 53.8462 101.731 54.0385C101.731 58.4616 102.981 62.5 104.904 66.1539V130.577C101.538 130.962 98.5577 132.981 97.1154 136.154L88.0769 159.135H15.8654V165.481H175V159.135H166.538H166.635ZM127.308 79.6154C133.365 79.6154 138.846 77.4039 143.173 73.8462V130.481H111.346V73.8462C115.673 77.4039 121.25 79.6154 127.212 79.6154H127.308ZM146.442 54.1346C146.442 64.6154 137.885 73.2693 127.308 73.2693C116.731 73.2693 108.173 64.7116 108.173 54.1346C108.173 43.5577 116.731 35 127.308 35C137.885 35 146.442 43.5577 146.442 54.1346ZM70 6.34618C77.0192 6.34618 82.6923 12.0193 82.6923 19.0385C82.6923 26.0577 77.0192 31.7308 70 31.7308C62.9808 31.7308 57.3077 26.0577 57.3077 19.0385C57.3077 12.0193 62.9808 6.34618 70 6.34618ZM35 47.6923C42.0192 47.6923 47.6923 53.3654 47.6923 60.3846C47.6923 67.4039 42.0192 73.077 35 73.077C27.9808 73.077 22.3077 67.4039 22.3077 60.3846C22.3077 53.3654 27.9808 47.6923 35 47.6923ZM25.1923 113.173C25.1923 113.173 25.4808 114.038 25.4808 114.519C25.4808 116.25 24.0385 117.692 22.3077 117.692C21.25 117.692 20.1923 117.115 19.6154 116.154L7.11538 96.25C6.63461 95.4808 6.34615 94.6154 6.34615 93.75C6.34615 92.7885 6.63461 91.9231 7.11538 91.1539L19.8077 71.827C22.1154 74.9039 25.2885 77.2116 29.0385 78.3654L16.6346 94.327L25.0962 113.077L25.1923 113.173ZM62.8846 91.1539C63.3654 91.9231 63.6538 92.7885 63.6538 93.75C63.6538 94.7116 63.3654 95.4808 62.8846 96.25L50.3846 116.154C49.8077 117.115 48.75 117.692 47.6923 117.692C45.9615 117.692 44.5192 116.25 44.5192 114.519C44.5192 114.038 44.6154 113.654 44.8077 113.173L53.2692 94.4231L40.8654 78.4616C44.6154 77.2116 47.7885 74.9039 50.0962 71.9231L62.7885 91.25L62.8846 91.1539ZM41.7308 42.5L53.5577 28.4616C55.7692 32.2116 59.1346 35.1923 63.2692 36.7308L51.4423 50.7693C49.2308 47.0193 45.8654 44.0385 41.7308 42.5ZM81.9231 33.75C85.2885 31.0577 87.6923 27.3077 88.6538 22.9808L109.615 35.7693C106.538 38.75 104.327 42.5 103.077 46.6346L82.0192 33.75H81.9231ZM103.077 138.462C103.558 137.404 104.712 136.731 105.962 136.731H148.558C149.808 136.731 150.962 137.5 151.442 138.654L159.615 159.038H153.269L147.019 145.481L141.25 148.173L146.25 159.038H94.9038L102.981 138.558L103.077 138.462Z" fill="#007E91"/>
<path id="Vector_3" d="M9.519 159.135H3.17285V165.481H9.519V159.135Z" fill="#007E91"/>
<path id="Vector_4" d="M25.6729 36.827L23.3652 30.8654C21.5382 31.5385 19.8075 32.5 18.1729 33.4616L21.5382 38.8462C22.8844 37.9808 24.2305 37.3077 25.6729 36.7308V36.827Z" fill="#007E91"/>
<path id="Vector_5" d="M15.7694 43.75L10.9617 39.6154C7.78865 43.2693 5.3848 47.6923 4.23096 52.4039L10.3848 54.0385C11.3463 50.2885 13.2694 46.7308 15.7694 43.8462V43.75Z" fill="#007E91"/>
<path id="Vector_6" d="M82.6923 105H76.3462V117.692H82.6923V105Z" fill="#007E91"/>
<path id="Vector_7" d="M82.6923 130.481H76.3462V143.173H82.6923V130.481Z" fill="#007E91"/>
<path id="Vector_8" d="M73.173 120.962H63.6538V127.308H73.173V120.962Z" fill="#007E91"/>
<path id="Vector_9" d="M95.4807 120.962H85.9614V127.308H95.4807V120.962Z" fill="#007E91"/>
</g>
</g>
<defs>
<clipPath id="clip0_675_1207">
<rect width="175" height="165.481" fill="white"/>
</clipPath>
</defs>
</svg>
