<svg width="47" height="47" viewBox="0 0 47 47" fill="none" xmlns="http://www.w3.org/2000/svg">
<path d="M35.9717 27.0513L36.2343 26.6258L35.9716 27.0512L35.9714 27.0511L35.9706 27.0506L35.9675 27.0487L35.955 27.041L35.9063 27.0109L35.7214 26.8968L35.0615 26.4896L33.0584 25.2537L30.1396 23.4527C30.1396 23.4526 30.1396 23.4526 30.1396 23.4526C29.9569 23.34 29.6994 23.4008 29.5856 23.5844L35.9717 27.0513ZM35.9717 27.0513L35.9719 27.0514M35.9717 27.0513L35.9719 27.0514M35.9719 27.0514C36.1543 27.1638 36.2159 27.4181 36.1013 27.6048L35.9719 27.0514ZM29.7171 24.1362L29.4545 24.5617L29.7172 24.1362L29.7174 24.1364L29.7182 24.1369L29.7213 24.1388L29.7338 24.1465L29.7826 24.1766L29.9675 24.2907L30.6278 24.6982L32.6318 25.9347C33.1194 26.2356 33.6061 26.5359 34.0381 26.8024C34.9005 27.3346 35.545 27.7323 35.5438 27.7316L35.5492 27.7348L35.5491 27.7348C35.7339 27.8488 35.989 27.7875 36.1012 27.6048L29.7171 24.1362ZM29.7171 24.1362L29.7169 24.1361M29.7171 24.1362L29.7169 24.1361M29.7169 24.1361C29.5354 24.0242 29.474 23.7645 29.5856 23.5844L29.7169 24.1361Z" fill="white" stroke="#56CCF2"/>
<path d="M26.8594 21.4993H26.8594C26.606 21.4992 26.4098 21.7468 26.4677 21.9936L26.4677 21.9937C26.487 22.0758 26.5526 22.1737 26.6565 22.2396L26.6566 22.2396C26.7245 22.2827 26.7946 22.3026 26.8575 22.3026C27.0008 22.3026 27.1264 22.232 27.1996 22.1128L26.8594 21.4993ZM26.8594 21.4993C26.9863 21.4993 27.1124 21.574 27.1905 21.7148M26.8594 21.4993L27.1905 21.7148M27.1905 21.7148C27.269 21.8563 27.2658 22.005 27.1996 22.1128L27.1905 21.7148Z" fill="white" stroke="#56CCF2"/>
<path d="M17.0992 23.5403L17.0992 23.5404C17.2153 23.7253 17.1569 23.9796 16.9744 24.0947L16.9744 24.0947L16.9703 24.0973C16.9706 24.0971 16.5682 24.3509 15.9747 24.7253C15.4437 25.0602 14.7597 25.4916 14.0744 25.9238L12.0827 27.1801L11.4264 27.594L11.2425 27.71L11.1941 27.7405L11.1817 27.7484L11.1785 27.7504L11.1777 27.7509L11.1775 27.751L11.4442 28.1739L11.1775 27.751C11.1327 27.7792 11.0651 27.7998 10.9788 27.7974L10.9787 27.7974C10.8117 27.7927 10.6767 27.709 10.6236 27.6247L10.6235 27.6246C10.508 27.4414 10.5655 27.187 10.7485 27.0714C10.7486 27.0713 10.7487 27.0713 10.7488 27.0712L13.6509 25.2412L15.6413 23.9861L16.297 23.5726L16.4807 23.4568L16.5291 23.4263L16.5415 23.4185L16.5447 23.4165L16.5455 23.416L16.5457 23.4158L16.279 22.9929L16.5457 23.4158L16.5461 23.4156C16.7162 23.3081 16.9928 23.3709 17.0992 23.5403Z" fill="white" stroke="#56CCF2"/>
<path d="M20.2024 21.9204L20.2024 21.9203C20.2577 21.6755 20.0615 21.4297 19.8091 21.4297C19.6249 21.4297 19.4596 21.5614 19.4185 21.7426M20.2024 21.9204L19.4185 21.7426M20.2024 21.9204C20.1617 22.1003 19.9956 22.233 19.811 22.233C19.5634 22.233 19.3638 21.9834 19.4185 21.7426M20.2024 21.9204L18.9309 21.6319L19.4185 21.7426" fill="white" stroke="#56CCF2"/>
<path d="M9.07915 42.2972L6.73638 34.4147L5.12593 28.9963L4.59525 27.2108L4.44658 26.7106L4.40741 26.5788L4.39737 26.545L4.39482 26.5364L4.39418 26.5343L4.39402 26.5338C4.39399 26.5336 4.39397 26.5336 3.91469 26.676L4.39397 26.5336L4.39396 26.5335C4.34192 26.3585 4.41455 26.1703 4.57081 26.0756L8.91528 23.4433L9.15618 23.2973V23.0157V15.3286C9.15618 15.1068 9.33603 14.9269 9.55786 14.9269H11.3612H11.8612V14.4269V11.7218C11.8612 11.5 12.0411 11.3202 12.2629 11.3202H15.1032H15.6032V10.8202V8.11512C15.6032 7.89332 15.783 7.71344 16.0049 7.71344H20.378H20.878V7.21344V0.90168C20.878 0.679882 21.0579 0.5 21.2797 0.5H24.8864C25.1082 0.5 25.2881 0.679882 25.2881 0.90168V7.21344V7.71344H25.7881H30.1613C30.3831 7.71344 30.5629 7.89332 30.5629 8.11512V10.8202V11.3202H31.0629H33.9032C34.125 11.3202 34.3049 11.5 34.3049 11.7218V14.4269V14.9269H34.8049H36.6083C36.8301 14.9269 37.0099 15.1068 37.0099 15.3286V23.0157V23.2973L37.2508 23.4433L41.5954 26.0757C41.7516 26.1704 41.8243 26.3587 41.7723 26.5336L41.7722 26.5337L37.0764 42.3333L36.9569 42.7353L37.3321 42.9229C38.6687 43.5912 40.1322 43.942 41.6932 43.5106L41.56 43.0286L41.6932 43.5106C42.9464 43.1642 43.8687 42.3513 44.714 41.6064C44.8105 41.5213 44.906 41.4371 45.0009 41.3546C45.1684 41.209 45.4221 41.2267 45.5676 41.3941C45.7131 41.5616 45.6953 41.8151 45.528 41.9605L45.5279 41.9606C44.3587 42.9772 43.3411 43.8583 41.9561 44.2531C40.4354 44.6866 38.7784 44.5442 37.3673 43.8386L9.07915 42.2972ZM9.07915 42.2972C9.07953 42.2984 9.0799 42.2996 9.08027 42.3009L9.08127 42.3043L8.12172 42.5858C8.14482 42.6635 8.18413 42.7127 8.20524 42.7353C8.21654 42.7474 8.22596 42.7555 8.23164 42.76C8.23741 42.7647 8.24097 42.767 8.24137 42.7672C8.24162 42.7674 8.23496 42.7632 8.21854 42.7556C8.20262 42.7482 8.18125 42.7393 8.1538 42.7293C8.03837 42.6871 7.8712 42.6445 7.67784 42.6051C7.31843 42.5319 6.93729 42.4829 6.78475 42.4633C6.77523 42.4621 6.76659 42.461 6.75891 42.46L6.82306 41.9641L6.75889 42.46C4.36033 42.1496 2.51021 43.3335 0.638118 44.9613C0.470759 45.1068 0.452998 45.3604 0.598539 45.5279C0.735823 45.6857 1.00135 45.7099 1.16518 45.5674L1.49323 45.9448L1.1652 45.5674C2.15463 44.7073 3.2506 43.9091 4.4598 43.5042C5.691 43.0919 7.02307 43.0934 8.4397 43.8019C10.7033 44.9336 12.933 45.3653 15.1583 44.1943C17.0994 43.1726 19.2057 42.1455 21.6411 43.305L21.6411 43.305L23.8887 44.3753L23.6738 44.8268L23.8887 44.3753C25.6726 45.2249 27.7062 45.2053 29.4733 44.3217L29.6969 44.7689L29.4733 44.3217C29.6767 44.22 29.8953 44.1042 30.1216 43.9844C30.4983 43.7849 30.8961 43.5742 31.2801 43.3986C31.9187 43.1066 32.6147 42.8619 33.3703 42.81C34.8239 42.7101 36.1948 43.2519 37.3671 43.8385L9.07915 42.2972ZM22.1814 16.9292C22.6814 16.9292 22.6814 16.9293 22.6814 16.9295V16.9304V16.9318V16.9338V16.9364V16.9395V16.9432V16.9475V16.9523V16.9577V16.9636V16.9701V16.9771V16.9847V16.9928V17.0015V17.0107V17.0204V17.0307V17.0415V17.0529V17.0647V17.0771V17.0901V17.1035V17.1175V17.132V17.147V17.1625V17.1785V17.1951V17.2121V17.2297V17.2477V17.2663V17.2853V17.3048V17.3249V17.3454V17.3664V17.3879V17.4099V17.4324V17.4553V17.4788V17.5027V17.527V17.5519V17.5772V17.603V17.6292V17.6559V17.6831V17.7107V17.7388V17.7673V17.7963V17.8257V17.8556V17.8859V17.9167V17.9478V17.9795V18.0116V18.0441V18.077V18.1103V18.1441V18.1783V18.213V18.248V18.2835V18.3194V18.3556V18.3923V18.4295V18.467V18.5049V18.5432V18.5819V18.621V18.6605V18.7004V18.7407V18.7814V18.8225V18.8639V18.9057V18.9479V18.9905V19.0335V19.0768V19.1205V19.1646V19.209V19.2538V19.2989V19.3444V19.3903V19.4365V19.4831V19.53V19.5772V19.6249V19.6728V19.7211V19.7697V19.8187V19.868V19.9176V19.9676V20.0179V20.0685V20.1194V20.1706V20.2222V20.2741V20.3263V20.3788V20.4316V20.4847V20.5382V20.5919V20.6459V20.7002V20.7549V20.8098V20.865V20.9205V20.9762V21.0323V21.0886V21.1453V21.2021V21.2593V21.3168V21.3745V21.4325V21.4907V21.5492V21.608V21.667V21.7263V21.7859V21.8457V21.9057V21.966V22.0265V22.0873V22.1483V22.2096V22.2711V22.3328V22.3948V22.457V22.5194V22.5821V22.6449V22.708V22.7713V22.8349V22.8986V22.9626V23.0267V23.0911V23.1557V23.2204V23.2854V23.3506V23.416V23.4815V23.5473V23.6132V23.6794V23.7457V23.8122V23.8788V23.9457V24.0127V24.0799V24.1473V24.2149V24.2826V24.3505V24.4185V24.4867V24.555V24.6236V24.6922V24.761V24.83V24.8991V24.9684V25.0378V25.1073V25.177V25.2468V25.3167V25.3868V25.457V25.5273V25.5978V25.6684V25.739V25.8099V25.8808V25.9518V26.023V26.0942V26.1656V26.237V26.3086V26.3803V26.452V26.5239V26.5958V26.6679V26.74V26.8122V26.8845V26.9569V27.0293V27.1019V27.1745V27.2472V27.3199V27.3927V27.4656V27.5386V27.6116V27.6846V27.7577V27.8309V27.9041V27.9774V28.0507V28.1241V28.1975V28.271V28.3445V28.418V28.4915V28.5651V28.6388V28.7124V28.7861V28.8598V28.9335V29.0072V29.081V29.1547V29.2285V29.3023V29.3761V29.4499V29.5237V29.5975V29.6712V29.745V29.8188V29.8926V29.9664V30.0401V30.1138V30.1876V30.2612V30.3349V30.4086V30.4822V30.5558V30.6293V30.7029V30.7764V30.8498V30.9232V30.9966V31.0699V31.1432V31.2164V31.2896V31.3627V31.4358V31.5088V31.5817V31.6546V31.7274V31.8002V31.8728V31.9455V32.018V32.0904V32.1628V32.2351V32.3073V32.3795V32.4515V32.5234V32.5953V32.6671V32.7387V32.8103V32.8818V32.9531V33.0244V33.0955V33.1666V33.2375V33.3083V33.379V33.4496V33.52V33.5904V33.6606V33.7306V33.8006V33.8704V33.9401V34.0096V34.079V34.1483V34.2174V34.2863V34.3551V34.4238V34.4923V34.5607V34.6289V34.6969V34.7648V34.8325V34.9001V34.9674V35.0346V35.1017V35.1685V35.2352V35.3017V35.368V35.4342V35.5001V35.5659V35.6314V35.6968V35.762V35.827V35.8917V35.9563V36.0207V36.0849V36.1488V36.2126V36.2761V36.3394V36.4025V36.4654V36.528V36.5904V36.6526V36.7146V36.7763V36.8378V36.8991V36.9601V37.0209V37.0814V37.1417V37.2018V37.2616V37.3211V37.3804V37.4395V37.4982V37.5568V37.615V37.673V37.7307V37.7882V37.8453V37.9022V37.9589V38.0152V38.0713V38.127V38.1825V38.2377V38.2927V38.3473V38.4016V38.4556V38.5094V38.5628V38.6159V38.6687V38.7212V38.7734V38.8253V38.8769V38.9282V38.9791V39.0297V39.08V39.1299V39.1796V39.2289V39.2778V39.3265V39.3748V39.4227V39.4703V39.5176V39.5645V39.6111V39.6573V39.7032V39.7487V39.7938V39.8386V39.8831V39.9271V39.9708V40.0142V40.0571V40.0997V40.1419V40.1837V40.2252V40.2662V40.3069V40.3472V40.3871V40.4266V40.4657V40.5045V40.5428V40.5807V40.6182V40.6553V40.692V40.7283V40.7642V40.7997V40.8347V40.8694V40.9036V40.9374V40.9707V41.0037V41.0362V41.0683V41.0999V41.1311V41.1619V41.1922V41.2221V41.2515V41.2805V41.309V41.3371V41.3647V41.3919V41.4186V41.4448V41.4706V41.4959V41.5208V41.5452V41.5691V41.5925V41.6155V41.6379V41.6599V41.6814V41.7024V41.723V41.743V41.7626V41.7816V41.8002V41.8182V41.8358V41.8528V41.8694V41.8854V41.9009V41.9159V41.9304V41.9444V41.9579V41.9708V41.9832V41.9951V42.0064V42.0172V42.0275V42.0373V42.0465V42.0552V42.0633V42.0709V42.0779V42.0844V42.0903V42.0957V42.1005V42.1048V42.1085V42.1116V42.1142V42.1162V42.1177V42.1182V42.1185V42.1188H22.1814V16.9292ZM22.1814 16.9292H22.6814V16.0416L21.9223 16.5016L5.58248 26.402L5.25232 26.6021L5.36231 26.9721L10.2933 43.5622L10.371 43.8235L10.6326 43.8998C11.3683 44.1143 12.1427 44.1693 12.8963 44.0777L12.8981 44.0775L12.9009 44.0771L12.9046 44.0767L12.9064 44.0765C14.0004 43.9356 14.9578 43.4139 15.8185 42.9448C15.9769 42.8585 16.132 42.774 16.2841 42.6939L16.2841 42.6939C17.6001 42.0012 19.1646 41.7998 20.6221 42.1153L22.1814 16.9292ZM36.2066 16.2302V15.7302H35.7066H26.3113H24.5212L26.0522 16.6579L35.4475 22.3506L36.2066 22.8106V21.923V16.2302ZM22.1814 1.30336H21.6814V1.80336V7.21344V7.71344H22.1814H23.9847H24.4847V7.21344V1.80336V1.30336H23.9847H22.1814ZM16.9066 8.5168H16.4066V9.0168V10.8202V11.3202H16.9066H29.2596H29.7596V10.8202V9.0168V8.5168H29.2596H16.9066ZM10.4595 15.7302H9.95954V16.2302V21.923V22.8106L10.7186 22.3506L20.114 16.6579L21.6449 15.7302H19.8549H10.4595ZM12.6646 14.4269V14.9269H13.1646H33.0015H33.5015V14.4269V12.6235V12.1235H33.0015H13.1646H12.6646V12.6235V14.4269ZM35.3892 41.7352L36.3682 41.8956L40.8038 26.9721L40.9138 26.6021L40.5836 26.402L24.2438 16.5016L23.4847 16.0416V16.9292V42.9775V43.2931L23.7697 43.4289C25.4519 44.2303 27.3002 44.5101 29.1139 43.6033C29.3265 43.497 29.535 43.3901 29.7407 43.2847C30.9202 42.6802 32.0082 42.1225 33.2431 41.9918C33.2369 41.9925 33.2699 41.9904 33.363 41.9891C33.4446 41.9879 33.5542 41.9874 33.6823 41.9882C33.9389 41.9898 34.2644 41.9963 34.5829 42.0119C34.9054 42.0277 35.2046 42.0519 35.4156 42.0861C35.5247 42.1037 35.5823 42.1198 35.602 42.1273C35.5936 42.1235 35.569 42.111 35.5391 42.0857C35.4945 42.0479 35.3822 41.9303 35.3892 41.7352Z" fill="white" stroke="#56CCF2"/>
</svg>
