<svg width="38" height="48" viewBox="0 0 38 48" fill="none" xmlns="http://www.w3.org/2000/svg">
<g id="Main">
<g id="Vector">
<mask id="path-1-inside-1_69_1563" fill="white">
<path d="M35.0317 14.5517C34.9882 13.9633 34.7238 13.4131 34.2915 13.0116C33.8592 12.6101 33.291 12.387 32.701 12.3871H29.6948C27.8711 11.374 27.3511 8.98252 27.2056 7.74194H32.5984C33.216 7.74307 33.8088 7.49917 34.2468 7.06375C34.6848 6.62833 34.9322 6.03695 34.9347 5.41936V2.32258C34.9322 1.70499 34.6848 1.1136 34.2468 0.678181C33.8088 0.242759 33.216 -0.00113696 32.5984 3.98506e-06H4.56257C3.94497 -0.00113696 3.35214 0.242759 2.91414 0.678181C2.47615 1.1136 2.22876 1.70499 2.22626 2.32258V5.41936C2.22876 6.03696 2.47615 6.62834 2.91414 7.06376C3.35214 7.49918 3.94497 7.74308 4.56257 7.74194H9.95742C9.81506 8.98087 9.29924 11.3698 7.46633 12.3871H4.45991C3.86992 12.387 3.30174 12.6101 2.86944 13.0116C2.43714 13.4131 2.17273 13.9633 2.12929 14.5517L0.00516063 45.5194C-0.0160674 45.8372 0.0283445 46.1561 0.135632 46.456C0.24292 46.7559 0.410787 47.0306 0.628789 47.2629C0.848252 47.4954 1.11287 47.6808 1.40645 47.8075C1.70003 47.9343 2.01639 47.9998 2.33616 48H34.8248C35.1446 47.9998 35.4609 47.9343 35.7545 47.8075C36.0481 47.6808 36.3127 47.4954 36.5322 47.2629C36.7502 47.0306 36.918 46.7559 37.0253 46.456C37.1326 46.1561 37.177 45.8372 37.1558 45.5194L35.0317 14.5517ZM3.78381 5.41936V2.32258C3.78468 2.11673 3.86716 1.91963 4.01314 1.7745C4.15913 1.62937 4.35672 1.54805 4.56257 1.54839H32.5984C32.8042 1.54805 33.0018 1.62937 33.1478 1.7745C33.2938 1.91963 33.3763 2.11673 33.3771 2.32258V5.41936C33.3763 5.62521 33.2938 5.82232 33.1478 5.96745C33.0018 6.11258 32.8042 6.19389 32.5984 6.19355H4.56257C4.35672 6.19389 4.15913 6.11258 4.01314 5.96745C3.86716 5.82232 3.78468 5.62521 3.78381 5.41936ZM11.5244 7.74194H25.6365C25.7675 9.41862 26.3599 11.0263 27.3482 12.3871H9.81278C10.8011 11.0263 11.3935 9.41861 11.5244 7.74194ZM35.394 46.2059C35.3213 46.284 35.2331 46.3461 35.1352 46.3884C35.0372 46.4307 34.9315 46.4522 34.8248 46.4516H2.33616C2.22944 46.4522 2.12377 46.4307 2.02579 46.3884C1.92782 46.3461 1.83967 46.284 1.76691 46.2059C1.69379 46.1289 1.63753 46.0375 1.60172 45.9375C1.56591 45.8375 1.55132 45.7312 1.5589 45.6253L3.68304 14.6567C3.69757 14.4607 3.78574 14.2773 3.92983 14.1436C4.07393 14.0098 4.26329 13.9354 4.45991 13.9355H32.701C32.8977 13.9354 33.087 14.0098 33.2311 14.1436C33.3752 14.2773 33.4634 14.4607 33.4779 14.6568L35.6021 45.6253C35.6096 45.7312 35.595 45.8375 35.5592 45.9375C35.5234 46.0375 35.4672 46.1289 35.394 46.2059Z"/>
</mask>
<path d="M35.0317 14.5517C34.9882 13.9633 34.7238 13.4131 34.2915 13.0116C33.8592 12.6101 33.291 12.387 32.701 12.3871H29.6948C27.8711 11.374 27.3511 8.98252 27.2056 7.74194H32.5984C33.216 7.74307 33.8088 7.49917 34.2468 7.06375C34.6848 6.62833 34.9322 6.03695 34.9347 5.41936V2.32258C34.9322 1.70499 34.6848 1.1136 34.2468 0.678181C33.8088 0.242759 33.216 -0.00113696 32.5984 3.98506e-06H4.56257C3.94497 -0.00113696 3.35214 0.242759 2.91414 0.678181C2.47615 1.1136 2.22876 1.70499 2.22626 2.32258V5.41936C2.22876 6.03696 2.47615 6.62834 2.91414 7.06376C3.35214 7.49918 3.94497 7.74308 4.56257 7.74194H9.95742C9.81506 8.98087 9.29924 11.3698 7.46633 12.3871H4.45991C3.86992 12.387 3.30174 12.6101 2.86944 13.0116C2.43714 13.4131 2.17273 13.9633 2.12929 14.5517L0.00516063 45.5194C-0.0160674 45.8372 0.0283445 46.1561 0.135632 46.456C0.24292 46.7559 0.410787 47.0306 0.628789 47.2629C0.848252 47.4954 1.11287 47.6808 1.40645 47.8075C1.70003 47.9343 2.01639 47.9998 2.33616 48H34.8248C35.1446 47.9998 35.4609 47.9343 35.7545 47.8075C36.0481 47.6808 36.3127 47.4954 36.5322 47.2629C36.7502 47.0306 36.918 46.7559 37.0253 46.456C37.1326 46.1561 37.177 45.8372 37.1558 45.5194L35.0317 14.5517ZM3.78381 5.41936V2.32258C3.78468 2.11673 3.86716 1.91963 4.01314 1.7745C4.15913 1.62937 4.35672 1.54805 4.56257 1.54839H32.5984C32.8042 1.54805 33.0018 1.62937 33.1478 1.7745C33.2938 1.91963 33.3763 2.11673 33.3771 2.32258V5.41936C33.3763 5.62521 33.2938 5.82232 33.1478 5.96745C33.0018 6.11258 32.8042 6.19389 32.5984 6.19355H4.56257C4.35672 6.19389 4.15913 6.11258 4.01314 5.96745C3.86716 5.82232 3.78468 5.62521 3.78381 5.41936ZM11.5244 7.74194H25.6365C25.7675 9.41862 26.3599 11.0263 27.3482 12.3871H9.81278C10.8011 11.0263 11.3935 9.41861 11.5244 7.74194ZM35.394 46.2059C35.3213 46.284 35.2331 46.3461 35.1352 46.3884C35.0372 46.4307 34.9315 46.4522 34.8248 46.4516H2.33616C2.22944 46.4522 2.12377 46.4307 2.02579 46.3884C1.92782 46.3461 1.83967 46.284 1.76691 46.2059C1.69379 46.1289 1.63753 46.0375 1.60172 45.9375C1.56591 45.8375 1.55132 45.7312 1.5589 45.6253L3.68304 14.6567C3.69757 14.4607 3.78574 14.2773 3.92983 14.1436C4.07393 14.0098 4.26329 13.9354 4.45991 13.9355H32.701C32.8977 13.9354 33.087 14.0098 33.2311 14.1436C33.3752 14.2773 33.4634 14.4607 33.4779 14.6568L35.6021 45.6253C35.6096 45.7312 35.595 45.8375 35.5592 45.9375C35.5234 46.0375 35.4672 46.1289 35.394 46.2059Z" fill="white"/>
<path d="M35.0317 14.5517L43.0129 14.0042L43.0115 13.9834L43.0099 13.9626L35.0317 14.5517ZM32.701 12.3871V20.3871H32.7022L32.701 12.3871ZM29.6948 12.3871L25.8097 19.3804L27.6218 20.3871H29.6948V12.3871ZM27.2056 7.74194V-0.258061H18.2129L19.26 8.67349L27.2056 7.74194ZM32.5984 7.74194L32.6131 -0.258048L32.6057 -0.258061H32.5984V7.74194ZM34.9347 5.41936L42.9346 5.45175L42.9347 5.43555V5.41936H34.9347ZM34.9347 2.32258H42.9347V2.30639L42.9346 2.2902L34.9347 2.32258ZM32.5984 3.98506e-06V8H32.6058L32.6132 7.99999L32.5984 3.98506e-06ZM4.56257 3.98506e-06L4.5478 7.99999L4.55519 8H4.56257V3.98506e-06ZM2.22626 2.32258L-5.77367 2.2902L-5.77374 2.30639V2.32258H2.22626ZM2.22626 5.41936H-5.77374V5.43555L-5.77367 5.45175L2.22626 5.41936ZM4.56257 7.74194V-0.258061H4.55519L4.5478 -0.258047L4.56257 7.74194ZM9.95742 7.74194L17.9051 8.65517L18.9293 -0.258061H9.95742V7.74194ZM7.46633 12.3871V20.3871H9.53758L11.3486 19.382L7.46633 12.3871ZM4.45991 12.3871L4.45871 20.3871H4.45991V12.3871ZM2.12929 14.5517L-5.84899 13.9626L-5.85053 13.9834L-5.85195 14.0042L2.12929 14.5517ZM0.00516063 45.5194L-7.97609 44.972L-7.97658 44.9791L-7.97706 44.9863L0.00516063 45.5194ZM0.628789 47.2629L-5.20438 52.7377L-5.19703 52.7456L-5.18966 52.7534L0.628789 47.2629ZM2.33616 48L2.33014 56H2.33616V48ZM34.8248 48V56L34.8308 56L34.8248 48ZM36.5322 47.2629L42.3506 52.7534L42.358 52.7456L42.3653 52.7377L36.5322 47.2629ZM37.1558 45.5194L45.138 44.9863L45.1375 44.9791L45.137 44.972L37.1558 45.5194ZM3.78381 5.41936H-4.21619V5.43636L-4.21612 5.45336L3.78381 5.41936ZM3.78381 2.32258L-4.21612 2.28858L-4.21619 2.30558V2.32258H3.78381ZM4.56257 1.54839L4.54944 9.54839H4.56257V1.54839ZM32.5984 1.54839V9.5484L32.6115 9.54838L32.5984 1.54839ZM33.3771 2.32258H41.3771V2.30558L41.3771 2.28858L33.3771 2.32258ZM33.3771 5.41936L41.3771 5.45336L41.3771 5.43636V5.41936H33.3771ZM32.5984 6.19355L32.6115 -1.80645H32.5984V6.19355ZM4.56257 6.19355V-1.80646L4.54944 -1.80644L4.56257 6.19355ZM11.5244 7.74194V-0.258061H4.12483L3.54871 7.11907L11.5244 7.74194ZM25.6365 7.74194L33.6122 7.11902L33.0361 -0.258061H25.6365V7.74194ZM27.3482 12.3871V20.3871H43.0459L33.8211 7.68588L27.3482 12.3871ZM9.81278 12.3871L3.33983 7.68593L-5.88478 20.3871H9.81278V12.3871ZM35.394 46.2059L29.5921 40.6979L29.5669 40.7245L29.542 40.7512L35.394 46.2059ZM34.8248 46.4516L34.8693 38.4517L34.847 38.4516H34.8248V46.4516ZM2.33616 46.4516V38.4516H2.31393L2.2917 38.4517L2.33616 46.4516ZM1.76691 46.2059L7.61896 40.7512L7.59402 40.7245L7.56883 40.6979L1.76691 46.2059ZM1.5589 45.6253L9.5385 46.1963L9.53934 46.1845L9.54015 46.1727L1.5589 45.6253ZM3.68304 14.6567L-4.29507 14.0653L-4.2967 14.0873L-4.29821 14.1093L3.68304 14.6567ZM4.45991 13.9355L4.45821 21.9355H4.45991V13.9355ZM32.701 13.9355V21.9355H32.7027L32.701 13.9355ZM33.4779 14.6568L41.4592 14.1093L41.4577 14.0874L41.456 14.0654L33.4779 14.6568ZM35.6021 45.6253L27.6208 46.1727L27.6216 46.1844L27.6224 46.1962L35.6021 45.6253ZM43.0099 13.9626C42.8178 11.3598 41.6481 8.92594 39.7357 7.1498L28.8473 18.8734C27.7995 17.9003 27.1587 16.5668 27.0534 15.1407L43.0099 13.9626ZM39.7357 7.1498C37.8233 5.37366 35.3098 4.38671 32.6998 4.3871L32.7022 20.3871C31.2723 20.3873 29.8951 19.8466 28.8473 18.8734L39.7357 7.1498ZM32.701 4.3871H29.6948V20.3871H32.701V4.3871ZM33.5799 5.39384C34.7696 6.05475 35.1507 6.94389 35.1765 7.00415C35.2066 7.07463 35.2022 7.08163 35.1861 7.01316C35.1711 6.94994 35.1589 6.87609 35.1512 6.81039L19.26 8.67349C19.3823 9.71591 19.677 11.4521 20.4653 13.2955C21.2434 15.1149 22.7963 17.7063 25.8097 19.3804L33.5799 5.39384ZM27.2056 15.7419H32.5984V-0.258061H27.2056V15.7419ZM32.5838 15.7419C35.32 15.7469 37.9465 14.6663 39.887 12.7372L28.6066 1.39029C29.6712 0.332 31.112 -0.260796 32.6131 -0.258048L32.5838 15.7419ZM39.887 12.7372C41.8275 10.8081 42.9235 8.18796 42.9346 5.45175L26.9348 5.38697C26.9408 3.88594 27.5421 2.44859 28.6066 1.39029L39.887 12.7372ZM42.9347 5.41936V2.32258H26.9347V5.41936H42.9347ZM42.9346 2.2902C42.9235 -0.446057 41.8275 -3.06619 39.887 -4.99533L28.6067 6.35169C27.5421 5.29339 26.9408 3.85603 26.9348 2.35497L42.9346 2.2902ZM39.887 -4.99533C37.9464 -6.92446 35.3199 -8.00504 32.5836 -7.99998L32.6132 7.99999C31.1121 8.00276 29.6712 7.40997 28.6067 6.35169L39.887 -4.99533ZM32.5984 -8H4.56257V8H32.5984V-8ZM4.57735 -7.99998C1.84108 -8.00504 -0.78547 -6.92446 -2.72601 -4.99533L8.5543 6.35169C7.48975 7.40998 6.04887 8.00276 4.5478 7.99999L4.57735 -7.99998ZM-2.72601 -4.99533C-4.66655 -3.06619 -5.7626 -0.446063 -5.77367 2.2902L10.2262 2.35497C10.2201 3.85604 9.61884 5.2934 8.5543 6.35169L-2.72601 -4.99533ZM-5.77374 2.32258V5.41936H10.2263V2.32258H-5.77374ZM-5.77367 5.45175C-5.7626 8.18801 -4.66655 10.8081 -2.72601 12.7373L8.5543 1.39026C9.61884 2.44854 10.2201 3.8859 10.2262 5.38697L-5.77367 5.45175ZM-2.72601 12.7373C-0.785471 14.6664 1.84107 15.747 4.57735 15.7419L4.5478 -0.258047C6.04887 -0.26082 7.48975 0.331968 8.5543 1.39026L-2.72601 12.7373ZM4.56257 15.7419H9.95742V-0.258061H4.56257V15.7419ZM2.00971 6.82871C2.00247 6.89177 1.99084 6.96253 1.97681 7.02244C1.96155 7.08754 1.95816 7.077 1.98975 7.00309C2.0205 6.93116 2.40367 6.04738 3.58408 5.39224L11.3486 19.382C14.3619 17.7095 15.9194 15.1226 16.7019 13.2922C17.4926 11.4425 17.7849 9.70115 17.9051 8.65517L2.00971 6.82871ZM7.46633 4.3871H4.45991V20.3871H7.46633V4.3871ZM4.46111 4.3871C1.85115 4.38671 -0.662348 5.37366 -2.57474 7.1498L8.31362 18.8734C7.26583 19.8466 5.8887 20.3873 4.45871 20.3871L4.46111 4.3871ZM-2.57474 7.1498C-4.48713 8.92594 -5.65683 11.3598 -5.84899 13.9626L10.1076 15.1407C10.0023 16.5668 9.36142 17.9003 8.31362 18.8734L-2.57474 7.1498ZM-5.85195 14.0042L-7.97609 44.972L7.98641 46.0669L10.1105 15.0991L-5.85195 14.0042ZM-7.97706 44.9863C-8.07144 46.3994 -7.87398 47.8169 -7.39698 49.1504L7.66824 43.7616C7.93067 44.4953 8.0393 45.2751 7.98738 46.0525L-7.97706 44.9863ZM-7.39698 49.1504C-6.91997 50.4839 -6.17363 51.705 -5.20438 52.7377L6.46196 41.788C6.99521 42.3561 7.40581 43.0279 7.66824 43.7616L-7.39698 49.1504ZM-5.18966 52.7534C-4.22307 53.7777 -3.05759 54.594 -1.76459 55.1522L4.57749 40.4628C5.28334 40.7676 5.91957 41.2132 6.44723 41.7723L-5.18966 52.7534ZM-1.76459 55.1522C-0.471563 55.7105 0.921778 55.9989 2.33014 56L2.34218 40C3.11099 40.0006 3.87162 40.1581 4.57749 40.4628L-1.76459 55.1522ZM2.33616 56H34.8248V40H2.33616V56ZM34.8308 56C36.2392 55.9989 37.6325 55.7105 38.9255 55.1522L32.5835 40.4628C33.2893 40.1581 34.05 40.0006 34.8188 40L34.8308 56ZM38.9255 55.1522C40.2186 54.594 41.384 53.7777 42.3506 52.7534L30.7137 41.7723C31.2414 41.2132 31.8776 40.7676 32.5835 40.4628L38.9255 55.1522ZM42.3653 52.7377C43.3346 51.7051 44.0809 50.484 44.5579 49.1504L29.4927 43.7616C29.7552 43.0279 30.1658 42.3561 30.699 41.788L42.3653 52.7377ZM44.5579 49.1504C45.035 47.8168 45.2324 46.3994 45.138 44.9863L29.1736 46.0525C29.1217 45.2751 29.2303 44.4953 29.4927 43.7616L44.5579 49.1504ZM45.137 44.972L43.0129 14.0042L27.0504 15.0991L29.1745 46.0669L45.137 44.972ZM11.7838 5.41936V2.32258H-4.21619V5.41936H11.7838ZM11.7837 2.35659C11.7756 4.26882 11.0095 6.0998 9.65331 7.44799L-1.62702 -3.899C-3.27516 -2.26054 -4.20624 -0.0353544 -4.21612 2.28858L11.7837 2.35659ZM9.65331 7.44799C8.29715 8.79618 6.46169 9.55152 4.54944 9.54838L4.57571 -6.4516C2.25175 -6.45541 0.0211141 -5.53745 -1.62702 -3.899L9.65331 7.44799ZM4.56257 9.54839H32.5984V-6.45161H4.56257V9.54839ZM32.6115 9.54838C30.6992 9.55152 28.8638 8.79617 27.5076 7.44799L38.788 -3.899C37.1399 -5.53744 34.9092 -6.45541 32.5852 -6.4516L32.6115 9.54838ZM27.5076 7.44799C26.1515 6.09981 25.3853 4.26884 25.3772 2.35659L41.3771 2.28858C41.3672 -0.0353738 40.4361 -2.26056 38.788 -3.899L27.5076 7.44799ZM25.3771 2.32258V5.41936H41.3771V2.32258H25.3771ZM25.3772 5.38535C25.3853 3.47311 26.1515 1.64213 27.5076 0.29395L38.788 11.6409C40.4361 10.0025 41.3672 7.77732 41.3771 5.45336L25.3772 5.38535ZM27.5076 0.29395C28.8638 -1.05424 30.6993 -1.80958 32.6115 -1.80644L32.5852 14.1935C34.9092 14.1974 37.1398 13.2794 38.788 11.6409L27.5076 0.29395ZM32.5984 -1.80645H4.56257V14.1936H32.5984V-1.80645ZM4.54944 -1.80644C6.46168 -1.80958 8.29714 -1.05425 9.65331 0.29395L-1.62702 11.6409C0.0211245 13.2794 2.25176 14.1974 4.57571 14.1935L4.54944 -1.80644ZM9.65331 0.29395C11.0095 1.64215 11.7756 3.47313 11.7837 5.38535L-4.21612 5.45336C-4.20624 7.7773 -3.27516 10.0025 -1.62702 11.6409L9.65331 0.29395ZM11.5244 15.7419H25.6365V-0.258061H11.5244V15.7419ZM17.6608 8.36486C17.9067 11.5136 19.0193 14.5329 20.8753 17.0883L33.8211 7.68588C33.7005 7.51982 33.6282 7.32363 33.6122 7.11902L17.6608 8.36486ZM27.3482 4.3871H9.81278V20.3871H27.3482V4.3871ZM16.2857 17.0883C18.1417 14.5328 19.2542 11.5135 19.5001 8.36481L3.54871 7.11907C3.53273 7.32368 3.46043 7.51988 3.33983 7.68593L16.2857 17.0883ZM29.542 40.7512C30.2229 40.0207 31.0478 39.4392 31.9647 39.0434L38.3056 53.7334C39.4184 53.253 40.4197 52.5472 41.2461 51.6606L29.542 40.7512ZM31.9647 39.0434C32.8817 38.6476 33.8707 38.4462 34.8693 38.4517L34.7803 54.4515C35.9924 54.4582 37.1927 54.2137 38.3056 53.7334L31.9647 39.0434ZM34.8248 38.4516H2.33616V54.4516H34.8248V38.4516ZM2.2917 38.4517C3.2903 38.4462 4.27927 38.6476 5.19621 39.0434L-1.14462 53.7334C-0.0317361 54.2137 1.16859 54.4582 2.38062 54.4515L2.2917 38.4517ZM5.19621 39.0434C6.1131 39.4392 6.93803 40.0207 7.61896 40.7512L-4.08514 51.6606C-3.25869 52.5472 -2.25747 53.253 -1.14462 53.7334L5.19621 39.0434ZM7.56883 40.6979C8.26124 41.4273 8.79395 42.2929 9.13307 43.2396L-5.92963 48.6354C-5.51889 49.782 -4.87365 50.8305 -4.03502 51.7139L7.56883 40.6979ZM9.13307 43.2396C9.47219 44.1862 9.61028 45.1932 9.5385 46.1963L-6.42069 45.0542C-6.50763 46.2691 -6.34038 47.4888 -5.92963 48.6354L9.13307 43.2396ZM9.54015 46.1727L11.6643 15.2042L-4.29821 14.1093L-6.42234 45.0778L9.54015 46.1727ZM11.6611 15.2482C11.5264 17.0662 10.7089 18.766 9.37293 20.0064L-1.51326 8.28073C-3.13746 9.78864 -4.13121 11.8551 -4.29507 14.0653L11.6611 15.2482ZM9.37293 20.0064C8.03692 21.2467 6.28121 21.9359 4.45821 21.9355L4.46161 5.93549C2.24536 5.93502 0.110936 6.77281 -1.51326 8.28073L9.37293 20.0064ZM4.45991 21.9355H32.701V5.93549H4.45991V21.9355ZM32.7027 21.9355C30.8797 21.9359 29.124 21.2467 27.788 20.0063L38.6743 8.28079C37.0501 6.77284 34.9156 5.93502 32.6994 5.93549L32.7027 21.9355ZM27.788 20.0063C26.452 18.7659 25.6346 17.0661 25.4998 15.2481L41.456 14.0654C41.2922 11.8552 40.2985 9.78874 38.6743 8.28079L27.788 20.0063ZM25.4967 15.2042L27.6208 46.1727L43.5833 45.0778L41.4592 14.1093L25.4967 15.2042ZM27.6224 46.1962C27.5507 45.1932 27.6888 44.1862 28.0279 43.2395L43.0906 48.6355C43.5013 47.4888 43.6686 46.2692 43.5817 45.0544L27.6224 46.1962ZM28.0279 43.2395C28.367 42.2928 28.8998 41.4272 29.5921 40.6979L41.196 51.7139C42.0346 50.8305 42.6798 49.7821 43.0906 48.6355L28.0279 43.2395Z" fill="#56CCF2" mask="url(#path-1-inside-1_69_1563)"/>
</g>
<g id="Vector_2">
<mask id="path-3-inside-2_69_1563" fill="white">
<path d="M32.4677 34.066C32.3659 34.0726 32.2664 34.0992 32.1749 34.1443C32.0835 34.1894 32.0018 34.252 31.9345 34.3287C31.8673 34.4054 31.8158 34.4946 31.7831 34.5912C31.7503 34.6877 31.7369 34.7898 31.7436 34.8916L32.2676 42.5284C32.2752 42.6344 32.2606 42.7407 32.2248 42.8407C32.189 42.9407 32.1328 43.0321 32.0596 43.1091C31.9869 43.1871 31.8987 43.2493 31.8008 43.2916C31.7028 43.3338 31.5971 43.3554 31.4904 43.3548H28.7046C28.4993 43.3548 28.3024 43.4363 28.1572 43.5815C28.012 43.7267 27.9304 43.9236 27.9304 44.129C27.9304 44.3343 28.012 44.5312 28.1572 44.6764C28.3024 44.8216 28.4993 44.9032 28.7046 44.9032H31.4904C31.8102 44.9029 32.1265 44.8374 32.4201 44.7107C32.7137 44.5839 32.9783 44.3986 33.1978 44.166C33.4158 43.9337 33.5836 43.6591 33.6909 43.3591C33.7982 43.0592 33.8426 42.7404 33.8214 42.4226L33.2974 34.7857C33.2801 34.5813 33.1837 34.3917 33.0287 34.2573C32.8738 34.1229 32.6725 34.0542 32.4677 34.066Z"/>
</mask>
<path d="M32.4677 34.066C32.3659 34.0726 32.2664 34.0992 32.1749 34.1443C32.0835 34.1894 32.0018 34.252 31.9345 34.3287C31.8673 34.4054 31.8158 34.4946 31.7831 34.5912C31.7503 34.6877 31.7369 34.7898 31.7436 34.8916L32.2676 42.5284C32.2752 42.6344 32.2606 42.7407 32.2248 42.8407C32.189 42.9407 32.1328 43.0321 32.0596 43.1091C31.9869 43.1871 31.8987 43.2493 31.8008 43.2916C31.7028 43.3338 31.5971 43.3554 31.4904 43.3548H28.7046C28.4993 43.3548 28.3024 43.4363 28.1572 43.5815C28.012 43.7267 27.9304 43.9236 27.9304 44.129C27.9304 44.3343 28.012 44.5312 28.1572 44.6764C28.3024 44.8216 28.4993 44.9032 28.7046 44.9032H31.4904C31.8102 44.9029 32.1265 44.8374 32.4201 44.7107C32.7137 44.5839 32.9783 44.3986 33.1978 44.166C33.4158 43.9337 33.5836 43.6591 33.6909 43.3591C33.7982 43.0592 33.8426 42.7404 33.8214 42.4226L33.2974 34.7857C33.2801 34.5813 33.1837 34.3917 33.0287 34.2573C32.8738 34.1229 32.6725 34.0542 32.4677 34.066Z" fill="white"/>
<path d="M32.4677 34.066L32.0095 26.0791L31.9794 26.0808L31.9492 26.0828L32.4677 34.066ZM31.7436 34.8916L23.7611 35.4199L23.7618 35.4296L23.7624 35.4392L31.7436 34.8916ZM32.2676 42.5284L24.2864 43.0761L24.2872 43.0878L24.2881 43.0995L32.2676 42.5284ZM32.0596 43.1091L26.2577 37.6011L26.2327 37.6275L26.208 37.654L32.0596 43.1091ZM31.4904 43.3548L31.5352 35.3549L31.5128 35.3548H31.4904V43.3548ZM31.4904 44.9032V52.9032L31.4964 52.9032L31.4904 44.9032ZM33.1978 44.166L39.0162 49.6565L39.0236 49.6487L39.0309 49.6409L33.1978 44.166ZM33.8214 42.4226L41.8036 41.8894L41.8031 41.8822L41.8026 41.8749L33.8214 42.4226ZM33.2974 34.7857L41.2786 34.2381L41.2743 34.1744L41.2689 34.1108L33.2974 34.7857ZM31.9492 26.0828C30.7982 26.1576 29.6733 26.4585 28.6387 26.9683L35.7112 41.3203C34.8596 41.7399 33.9336 41.9876 32.9861 42.0492L31.9492 26.0828ZM28.6387 26.9683C27.6042 27.4781 26.6802 28.1868 25.9197 29.0541L37.9493 39.6034C37.3233 40.3173 36.5627 40.9007 35.7112 41.3203L28.6387 26.9683ZM25.9197 29.0541C25.1592 29.9213 24.5771 30.9299 24.2068 32.0221L39.3593 37.1602C39.0545 38.0592 38.5754 38.8895 37.9493 39.6034L25.9197 29.0541ZM24.2068 32.0221C23.8363 33.1145 23.6849 34.2692 23.7611 35.4199L39.7262 34.3633C39.7889 35.3105 39.6643 36.2609 39.3593 37.1602L24.2068 32.0221ZM23.7624 35.4392L24.2864 43.0761L40.2489 41.9808L39.7249 34.344L23.7624 35.4392ZM24.2881 43.0995C24.2163 42.0965 24.3543 41.0895 24.6935 40.1428L39.7562 45.5386C40.1669 44.3919 40.3342 43.1723 40.2472 41.9574L24.2881 43.0995ZM24.6935 40.1428C25.0326 39.196 25.5654 38.3304 26.2577 37.6011L37.8616 48.6171C38.7001 47.7337 39.3454 46.6853 39.7562 45.5386L24.6935 40.1428ZM26.208 37.654C26.8889 36.9235 27.7139 36.3421 28.6308 35.9464L34.9707 50.6367C36.0836 50.1564 37.0848 49.4507 37.9113 48.5642L26.208 37.654ZM28.6308 35.9464C29.5477 35.5507 30.5366 35.3493 31.5352 35.3549L31.4456 51.3546C32.6576 51.3614 33.8579 51.117 34.9707 50.6367L28.6308 35.9464ZM31.4904 35.3548H28.7046V51.3548H31.4904V35.3548ZM28.7046 35.3548C26.3776 35.3548 24.1458 36.2792 22.5003 37.9247L33.814 49.2384C32.4589 50.5935 30.621 51.3548 28.7046 51.3548V35.3548ZM22.5003 37.9247C20.8548 39.5702 19.9304 41.8019 19.9304 44.129H35.9304C35.9304 46.0453 35.1691 47.8833 33.814 49.2384L22.5003 37.9247ZM19.9304 44.129C19.9304 46.456 20.8548 48.6878 22.5003 50.3333L33.814 39.0195C35.1691 40.3747 35.9304 42.2126 35.9304 44.129H19.9304ZM22.5003 50.3333C24.1458 51.9787 26.3776 52.9032 28.7046 52.9032V36.9032C30.621 36.9032 32.4589 37.6644 33.814 39.0195L22.5003 50.3333ZM28.7046 52.9032H31.4904V36.9032H28.7046V52.9032ZM31.4964 52.9032C32.9048 52.9021 34.2981 52.6136 35.5911 52.0554L29.2491 37.366C29.9549 37.0612 30.7156 36.9037 31.4844 36.9032L31.4964 52.9032ZM35.5911 52.0554C36.8842 51.4971 38.0496 50.6808 39.0162 49.6565L27.3793 38.6755C27.907 38.1163 28.5432 37.6707 29.2491 37.366L35.5911 52.0554ZM39.0309 49.6409C40.0002 48.6082 40.7465 47.3871 41.2235 46.0536L26.1583 40.6647C26.4207 39.9311 26.8314 39.2593 27.3646 38.6911L39.0309 49.6409ZM41.2235 46.0536C41.7005 44.72 41.898 43.3026 41.8036 41.8894L25.8392 42.9557C25.7873 42.1782 25.8959 41.3984 26.1583 40.6647L41.2235 46.0536ZM41.8026 41.8749L41.2786 34.2381L25.3162 35.3333L25.8402 42.9702L41.8026 41.8749ZM41.2689 34.1108C41.0757 31.8297 40 29.714 38.2707 28.214L27.7867 40.3006C26.3674 39.0694 25.4844 37.333 25.3259 35.4606L41.2689 34.1108ZM38.2707 28.214C36.5414 26.714 34.295 25.948 32.0095 26.0791L32.9258 42.0529C31.0499 42.1605 29.2061 41.5318 27.7867 40.3006L38.2707 28.214Z" fill="#56CCF2" mask="url(#path-3-inside-2_69_1563)"/>
</g>
<g id="Vector_3">
<mask id="path-5-inside-3_69_1563" fill="white">
<path d="M24.8107 23.2258H12.3504C12.145 23.2258 11.9481 23.3074 11.8029 23.4526C11.6577 23.5978 11.5762 23.7947 11.5762 24C11.5762 24.2054 11.6577 24.4023 11.8029 24.5475C11.9481 24.6927 12.145 24.7742 12.3504 24.7742H17.8018V39.4839C17.8031 39.6896 17.8857 39.8864 18.0316 40.0314C18.1775 40.1764 18.3748 40.2578 18.5805 40.2578C18.7862 40.2578 18.9836 40.1764 19.1295 40.0314C19.2754 39.8864 19.358 39.6896 19.3593 39.4839V24.7742H24.8107C25.016 24.7742 25.213 24.6927 25.3582 24.5475C25.5033 24.4023 25.5849 24.2054 25.5849 24C25.5849 23.7947 25.5033 23.5978 25.3582 23.4526C25.213 23.3074 25.016 23.2258 24.8107 23.2258Z"/>
</mask>
<path d="M24.8107 23.2258H12.3504C12.145 23.2258 11.9481 23.3074 11.8029 23.4526C11.6577 23.5978 11.5762 23.7947 11.5762 24C11.5762 24.2054 11.6577 24.4023 11.8029 24.5475C11.9481 24.6927 12.145 24.7742 12.3504 24.7742H17.8018V39.4839C17.8031 39.6896 17.8857 39.8864 18.0316 40.0314C18.1775 40.1764 18.3748 40.2578 18.5805 40.2578C18.7862 40.2578 18.9836 40.1764 19.1295 40.0314C19.2754 39.8864 19.358 39.6896 19.3593 39.4839V24.7742H24.8107C25.016 24.7742 25.213 24.6927 25.3582 24.5475C25.5033 24.4023 25.5849 24.2054 25.5849 24C25.5849 23.7947 25.5033 23.5978 25.3582 23.4526C25.213 23.3074 25.016 23.2258 24.8107 23.2258Z" fill="white"/>
<path d="M17.8018 24.7742H25.8018V16.7742H17.8018V24.7742ZM17.8018 39.4839H9.80177V39.5091L9.80193 39.5343L17.8018 39.4839ZM19.3593 39.4839L27.3591 39.5343L27.3593 39.5091V39.4839H19.3593ZM19.3593 24.7742V16.7742H11.3593V24.7742H19.3593ZM24.8107 15.2258H12.3504V31.2258H24.8107V15.2258ZM12.3504 15.2258C10.0233 15.2258 7.79157 16.1502 6.14607 17.7957L17.4598 29.1094C16.1047 30.4646 14.2667 31.2258 12.3504 31.2258V15.2258ZM6.14607 17.7957C4.50058 19.4412 3.57617 21.673 3.57617 24H19.5762C19.5762 25.9164 18.8149 27.7543 17.4598 29.1094L6.14607 17.7957ZM3.57617 24C3.57617 26.3271 4.50058 28.5588 6.14607 30.2043L17.4598 18.8906C18.8149 20.2457 19.5762 22.0836 19.5762 24H3.57617ZM6.14607 30.2043C7.79157 31.8498 10.0233 32.7742 12.3504 32.7742V16.7742C14.2667 16.7742 16.1047 17.5355 17.4598 18.8906L6.14607 30.2043ZM12.3504 32.7742H17.8018V16.7742H12.3504V32.7742ZM9.80177 24.7742V39.4839H25.8018V24.7742H9.80177ZM9.80193 39.5343C9.81655 41.853 10.7479 44.0717 12.3926 45.7061L23.6706 34.3567C25.0235 35.7011 25.7896 37.5262 25.8016 39.4334L9.80193 39.5343ZM12.3926 45.7061C14.0373 47.3404 16.2618 48.2578 18.5805 48.2578V32.2578C20.4879 32.2578 22.3177 33.0124 23.6706 34.3567L12.3926 45.7061ZM18.5805 48.2578C20.8993 48.2578 23.1238 47.3404 24.7685 45.7061L13.4905 34.3567C14.8434 33.0124 16.6732 32.2578 18.5805 32.2578V48.2578ZM24.7685 45.7061C26.4132 44.0717 27.3445 41.853 27.3591 39.5343L11.3595 39.4334C11.3715 37.5262 12.1376 35.7011 13.4905 34.3567L24.7685 45.7061ZM27.3593 39.4839V24.7742H11.3593V39.4839H27.3593ZM19.3593 32.7742H24.8107V16.7742H19.3593V32.7742ZM24.8107 32.7742C27.1378 32.7742 29.3695 31.8498 31.015 30.2043L19.7013 18.8906C21.0564 17.5355 22.8943 16.7742 24.8107 16.7742V32.7742ZM31.015 30.2043C32.6605 28.5588 33.5849 26.3271 33.5849 24H17.5849C17.5849 22.0836 18.3462 20.2457 19.7013 18.8906L31.015 30.2043ZM33.5849 24C33.5849 21.673 32.6605 19.4412 31.015 17.7957L19.7013 29.1094C18.3462 27.7543 17.5849 25.9164 17.5849 24H33.5849ZM31.015 17.7957C29.3695 16.1502 27.1378 15.2258 24.8107 15.2258V31.2258C22.8943 31.2258 21.0564 30.4646 19.7013 29.1094L31.015 17.7957Z" fill="#56CCF2" mask="url(#path-5-inside-3_69_1563)"/>
</g>
</g>
</svg>
