<svg width="175" height="115" viewBox="0 0 175 115" fill="none" xmlns="http://www.w3.org/2000/svg">
<g id="Asset 21 1" clip-path="url(#clip0_675_1158)">
<g id="Layer_1-2">
<path id="Vector" d="M135.099 83.7592C138.624 83.7592 141.548 80.8354 141.548 77.3096C141.548 73.7838 138.624 70.8599 135.099 70.8599C131.573 70.8599 128.649 73.7838 128.649 77.3096C128.649 80.8354 131.573 83.7592 135.099 83.7592Z" fill="#007E91"/>
<path id="Vector_2" d="M96.4863 77.3096C96.4863 80.8354 99.4102 83.7592 102.936 83.7592C106.462 83.7592 109.386 80.8354 109.386 77.3096C109.386 73.7838 106.462 70.8599 102.936 70.8599C99.4102 70.8599 96.4863 73.7838 96.4863 77.3096Z" fill="#007E91"/>
<path id="Vector_3" d="M70.6879 83.7592C74.2137 83.7592 77.1375 80.8354 77.1375 77.3096C77.1375 73.7838 74.2137 70.8599 70.6879 70.8599C67.1621 70.8599 64.2383 73.7838 64.2383 77.3096C64.2383 80.8354 67.1621 83.7592 70.6879 83.7592Z" fill="#007E91"/>
<path id="Vector_4" d="M38.5258 83.7592C42.0516 83.7592 44.9754 80.8354 44.9754 77.3096C44.9754 73.7838 42.0516 70.8599 38.5258 70.8599C35 70.8599 32.0762 73.7838 32.0762 77.3096C32.0762 80.8354 35 83.7592 38.5258 83.7592Z" fill="#007E91"/>
<path id="Vector_5" d="M86.769 57.9607H80.3193V64.4103H86.769V57.9607Z" fill="#007E91"/>
<path id="Vector_6" d="M99.6684 57.9607H93.2188V64.4103H99.6684V57.9607Z" fill="#007E91"/>
<path id="Vector_7" d="M86.769 22.5307H80.3193V28.9803H86.769V22.5307Z" fill="#007E91"/>
<path id="Vector_8" d="M162.961 86.855C163.133 86.4251 163.477 85.9951 163.649 85.5651L170.098 65.9582C171.302 62.0025 169.926 57.7887 166.659 55.3808L145.074 40.5037C143.526 39.2998 141.462 38.6118 139.398 38.6118H115.749V32.1622H151.179C154.705 32.1622 157.629 29.2383 157.629 25.7125V19.2629C157.629 15.7371 154.705 12.8133 151.179 12.8133H114.03C114.03 12.8133 113.944 12.5553 113.772 12.3833L107.322 3.78378C105.516 1.37592 102.592 -0.0859985 99.5824 -0.0859985H54.5209C51.5111 -0.0859985 48.5873 1.37592 46.7814 3.78378L40.3318 12.3833C39.1278 14.0172 38.4399 16.0811 38.4399 18.145V38.5258H27.9485C25.6266 38.5258 23.3907 39.3857 21.6708 40.8477L6.2777 55.5528C3.00989 58.3047 2.06394 63.1204 4.04183 67.0762L12.6413 86.597L-0.0859375 94.5946V104.484L15.3072 114.201L27.0885 106.462L39.3858 114.201L51.1671 106.462L63.4644 114.201L75.2458 106.462L87.5431 114.201L99.3244 106.462L111.622 114.201L123.403 106.462L135.7 114.201L147.482 106.462L159.779 114.201L174.656 104.484V94.6806L162.617 86.769L162.961 86.855ZM115.835 19.3489H151.265V25.7985H115.835V19.3489ZM9.88949 64.4103H67.4202V57.9607H13.2433L26.0566 45.7494C26.4865 45.4054 27.2605 45.0614 28.0345 45.0614H44.9755V28.9803H73.9558V22.5307H44.9755V18.231C44.9755 17.543 45.2335 16.855 45.5775 16.3391L52.0271 7.73955C52.6291 6.9656 53.575 6.44963 54.6069 6.44963H99.6684C100.7 6.44963 101.646 6.9656 102.248 7.73955L108.698 16.3391C109.128 16.941 109.3 17.543 109.3 18.231V38.6118H73.8698V45.0614H139.312C140 45.0614 140.688 45.3194 141.204 45.6634L158.919 57.8747H105.946V64.3243H163.649L157.371 83.4152C156.081 87.371 152.383 90.0368 148.17 90.0368H27.6045C23.7347 90.0368 20.2949 87.801 18.747 84.2752L9.97549 64.3243L9.88949 64.4103ZM168.808 101.302L160.037 107.064L147.74 99.3243L135.958 107.064L123.661 99.3243L111.88 107.064L99.5824 99.3243L87.801 107.064L75.5037 99.3243L63.7224 107.064L51.4251 99.3243L39.6438 107.064L27.3465 99.3243L15.5652 107.064L6.36369 101.302V98.2064L16.5111 91.8428C19.5209 94.8526 23.4767 96.6585 27.8625 96.6585H148.6C152.899 96.6585 156.769 94.8526 159.693 91.9287L169.152 98.1204V101.302H168.808Z" fill="#007E91"/>
</g>
</g>
<defs>
<clipPath id="clip0_675_1158">
<rect width="175" height="114.287" fill="white"/>
</clipPath>
</defs>
</svg>
