<svg width="175" height="149" viewBox="0 0 175 149" fill="none" xmlns="http://www.w3.org/2000/svg">
<g id="Asset 25 1" clip-path="url(#clip0_675_1229)">
<g id="Layer_1-2">
<path id="Vector" d="M34.3407 27.172L26.1064 34.2048L29.5972 38.2919L37.8315 31.2591L34.3407 27.172Z" fill="#007E91"/>
<path id="Vector_2" d="M17.8832 41.137L9.64893 48.1698L13.1396 52.2569L21.3739 45.2241L17.8832 41.137Z" fill="#007E91"/>
<path id="Vector_3" d="M29.32 42.1555L25.2329 45.6462L30.469 51.7769L34.5561 48.2862L29.32 42.1555Z" fill="#007E91"/>
<path id="Vector_4" d="M17.0031 27.7635L12.916 31.2542L18.1521 37.3849L22.2392 33.8941L17.0031 27.7635Z" fill="#007E91"/>
<path id="Vector_5" d="M173.182 91.215C170.257 84.1012 165.199 78.4892 158.164 74.458L153.184 71.5334C152.631 71.2172 151.998 71.1382 151.445 71.2172L145.675 72.2448C144.568 71.6125 142.197 70.2687 140.063 69.0041C139.431 68.6088 138.64 68.5298 138.008 68.7669L132.159 70.6639L124.017 67.6603C123.464 67.4232 122.832 67.4232 122.279 67.6603L116.508 69.6364L109.632 67.5022C108.999 67.2651 108.288 67.3442 107.656 67.6603L102.36 70.4268L96.6688 67.8184C95.9574 67.5022 95.167 67.5022 94.4556 67.8184L90.0292 69.9526L85.1286 67.8975C84.5753 67.6603 84.022 67.6603 83.4687 67.8184L80.1489 68.6879C79.6746 68.4508 78.9633 68.1346 78.8052 67.8975C78.0148 66.2376 78.9633 64.4986 79.0423 64.4986C79.5956 63.4711 79.4375 62.2064 78.568 61.3369C77.6986 60.5465 76.4339 60.3884 75.4063 61.0208C71.6913 63.313 69.6362 68.5298 70.6638 73.1933C71.5333 77.2245 74.8531 80.7023 79.8327 82.8365C86.8675 85.8401 95.0879 87.1048 104.968 86.7096C107.577 86.6305 110.106 86.3934 112.635 86.2353C118.326 85.7611 123.701 85.3658 129.234 86.1563C133.424 86.7886 138.482 87.8952 140.853 91.294C141.407 92.1635 141.644 93.2701 141.644 93.9815C141.644 93.9815 141.486 93.9815 141.407 93.9024L140.853 93.6653C139.747 93.112 138.561 92.5587 137.297 92.0845C124.729 87.9742 110.58 88.2904 92.7166 93.112C92.4795 93.112 92.2424 93.2701 91.9262 93.3491C90.4244 93.1911 85.7609 92.6378 81.1764 92.4797C80.386 91.1359 78.9633 89.318 76.671 88.2904C74.3788 87.2629 71.8494 87.1838 69.0829 88.0533C66.3165 86.1563 61.9691 85.2078 58.2541 88.7647C58.096 88.9228 58.017 89.0808 57.8589 89.2389L33.9881 84.1802C31.2216 83.5479 28.0599 84.8125 26.2419 87.1838C25.7677 87.7371 25.2144 88.8437 24.9773 90.1874C24.2659 94.1396 27.0324 97.0641 27.9018 97.9336C27.9809 98.0126 28.139 98.0917 28.218 98.0917C28.3761 98.1707 28.5342 98.3288 28.6923 98.4079C28.8503 98.4079 29.0084 98.4869 29.1665 98.5659C29.3246 98.5659 29.4827 98.5659 29.6408 98.5659C29.7988 98.5659 30.036 98.5659 30.1941 98.4869C30.2731 98.4869 30.4312 98.4869 30.5102 98.4869L33.5929 97.3803L35.4109 100.305C36.0432 101.332 37.3079 101.807 38.4935 101.332L41.6552 100.147L43.4732 103.071C44.1055 104.099 45.3702 104.573 46.5558 104.099L49.7966 102.913L51.5355 105.759L49.0062 107.972L46.2397 105.917C45.2912 105.206 43.9474 105.285 42.9989 106.075L40.4696 108.367L37.7031 106.312C36.7546 105.601 35.4109 105.68 34.4624 106.47L31.933 108.683L29.3246 106.707C28.8503 106.312 28.297 106.233 27.7437 106.233C27.6647 106.233 27.5857 106.233 27.4276 106.233C26.4791 106.233 25.6096 106.707 25.1353 107.577C24.3449 109.079 23.9497 110.738 23.9497 112.319C23.9497 115.402 25.0563 117.299 25.9258 118.327C28.0599 120.856 31.3797 121.172 32.5653 121.251C37.7031 121.646 50.2708 121.725 64.5775 121.409C64.7356 121.488 64.8937 121.567 65.0518 121.725C65.8422 122.279 67.0278 122.99 68.4506 123.701C68.6087 123.701 71.5333 125.045 75.0902 125.677C78.3309 126.31 87.1837 126.784 100.463 126.784C103.625 126.784 107.023 126.784 110.58 126.705C110.738 127.021 110.896 127.258 111.054 127.575C111.529 128.839 111.45 129.392 111.371 129.63C110.659 131.527 106.154 131.764 103.862 131.922C103.545 131.922 96.3526 132.159 93.1119 137.218C92.2424 138.561 92.0843 139.984 92.5586 141.328C93.1119 142.909 94.5346 143.857 95.5622 144.411C95.9574 145.122 96.5897 145.754 97.3801 146.149C98.882 147.019 100.7 147.019 101.965 146.861C102.913 147.651 104.02 148.047 105.284 148.047C105.442 148.047 105.601 148.047 105.759 148.047C107.656 147.888 109.078 146.703 109.316 146.466C109.632 146.229 109.869 145.912 109.948 145.517C110.264 144.727 111.054 144.094 112.24 143.936C115.007 143.462 119.117 142.751 124.176 140.142C126.152 139.115 127.495 137.455 128.128 135.4C128.997 132.317 128.128 128.76 127.021 125.836C131.052 126.231 137.138 126.389 143.383 125.519C144.806 125.282 145.754 124.018 145.596 122.595C145.359 121.172 144.094 120.224 142.671 120.382C132.87 121.804 123.227 120.145 123.069 120.145C122.041 119.986 121.093 120.382 120.54 121.172C119.986 121.963 119.907 123.069 120.382 123.939C122.12 126.942 123.859 131.369 123.148 133.898C122.911 134.609 122.516 135.163 121.804 135.558C117.457 137.85 114.137 138.403 111.134 138.878C108.841 139.273 106.786 140.696 105.68 142.751C105.601 142.751 105.442 142.83 105.363 142.83C105.363 142.83 105.284 142.83 105.047 142.514C104.415 141.644 103.308 141.249 102.281 141.486C101.49 141.723 100.305 141.723 100.147 141.644C99.9095 140.775 99.2772 140.142 98.4867 139.826C98.2496 139.826 98.0125 139.668 97.7754 139.51C99.3562 137.534 102.834 136.981 104.336 136.902C107.814 136.664 114.374 136.269 116.271 131.21C116.904 129.551 116.746 127.575 115.876 125.44C115.56 124.65 115.165 123.939 114.69 123.148L113.9 121.883C112.635 119.828 111.45 117.852 111.845 116.192C112.161 114.77 111.292 113.426 109.948 113.11C108.525 112.794 107.181 113.663 106.865 115.007C106.312 117.378 106.865 119.512 107.814 121.409C91.6101 121.646 79.7537 121.093 76.1177 120.461C73.1932 119.907 70.6638 118.801 70.5848 118.801C69.4782 118.327 68.6087 117.773 67.8973 117.299C66.8698 116.667 66.1584 116.113 64.9727 116.113C48.611 116.509 37.1498 116.35 32.9605 115.955C32.1701 115.955 30.5893 115.718 29.7988 114.849C29.5617 114.612 29.2456 113.979 29.0875 112.794L30.5102 113.821C30.9845 114.137 31.5378 114.295 32.012 114.295C32.6444 114.295 33.1977 114.058 33.751 113.663L36.2803 111.45L39.0468 113.505C39.9953 114.216 41.339 114.137 42.2876 113.347L44.8169 111.055L47.5834 113.11C48.5319 113.821 49.8756 113.742 50.8241 112.952L54.302 109.948L61.9691 109.632C61.9691 109.632 62.0482 109.632 62.1272 109.632C62.3643 109.632 62.6015 109.553 62.8386 109.474C62.9176 109.474 62.9967 109.395 63.0757 109.316C63.2338 109.237 63.3919 109.079 63.55 108.92C63.55 108.92 63.7081 108.762 63.7871 108.683C63.9452 108.525 64.0242 108.288 64.1823 108.051C64.1823 108.051 64.1823 107.972 64.2614 107.893C64.2614 107.735 64.2614 107.577 64.2614 107.419C64.2614 107.261 64.3404 107.103 64.3404 106.944C64.3404 106.628 64.2614 106.391 64.1033 106.154C64.1033 106.154 64.1033 106.075 64.1033 105.996C63.8661 105.522 63.4709 105.126 62.9967 104.889C62.9176 104.889 62.8386 104.731 62.6805 104.731L55.4876 102.202L53.0373 98.3288C52.405 97.3013 51.1403 96.827 49.9547 97.3013L46.7139 98.4869L44.896 95.5623C44.2636 94.5348 42.9989 94.0605 41.8133 94.5348L38.6516 95.7204L36.8336 92.7958C36.2013 91.7683 34.9366 91.294 33.751 91.7683L30.4312 92.9539C30.115 92.4006 29.7988 91.6892 29.9569 91.0569C29.9569 90.5827 30.1941 90.3455 30.1941 90.3455C30.7474 89.5551 32.012 89.0018 32.8025 89.2389L58.7284 94.6929C59.914 94.93 61.1787 94.2976 61.653 93.1911L62.0482 92.1635C64.1033 90.5826 66.0793 92.1635 66.7117 92.7958C67.4231 93.5072 68.6087 93.7444 69.5572 93.3491C71.5333 92.5587 73.1932 92.4006 74.4578 92.9539C76.2758 93.7444 77.0662 95.7994 77.0662 95.7994C77.3824 96.827 78.3309 97.5384 79.4375 97.5384C85.1286 97.6965 91.7681 98.4869 91.7681 98.4869C92.0843 98.4869 92.4795 98.4869 92.7957 98.4079C93.1909 98.3288 93.5861 98.1707 93.9813 98.0917C110.896 93.5863 124.096 93.1911 135.637 96.9851C136.585 97.3013 137.534 97.7755 138.482 98.2498L139.036 98.4869C140.221 99.0402 141.249 99.2773 142.118 99.2773C143.936 99.2773 144.964 98.3288 145.438 97.7755C147.493 95.4042 146.861 90.9779 144.964 88.3695C141.407 83.3107 135.004 81.7299 129.788 81.0185C123.701 80.149 117.773 80.6233 112.082 81.0185C109.632 81.2556 107.102 81.4137 104.652 81.4928C95.4831 81.8089 87.9741 80.6233 81.6507 78.0149C80.0699 77.3826 76.1968 75.4065 75.4854 72.0867C75.4854 72.0867 75.4854 72.0077 75.4854 71.9286C76.3549 72.64 77.3824 73.1143 78.0147 73.4304L78.3309 73.5885C78.9633 73.9837 79.6746 74.0628 80.307 73.9047L83.7058 73.0352L88.8436 75.2484C89.5549 75.5646 90.3454 75.4855 90.9777 75.2484L95.3251 73.1143L101.095 75.7227C101.807 76.0388 102.676 76.0388 103.308 75.7227L108.762 72.8771L115.481 74.9322C116.034 75.0903 116.587 75.0903 117.062 74.9322L122.753 72.9562L130.815 75.9598C131.368 76.1969 131.922 76.1969 132.475 75.9598L138.087 74.1418C143.62 77.3826 143.857 77.4616 144.173 77.5406C144.568 77.6197 144.964 77.6197 145.28 77.5406L150.971 76.5131L155.16 78.9634C161.167 82.3622 165.515 87.1838 168.044 93.1911C170.969 100.226 168.914 108.604 166.147 115.876C165.278 115.244 164.171 115.165 163.223 115.797C162.037 116.588 161.642 118.168 162.432 119.354C163.855 121.646 168.597 130.657 164.961 133.266C161.009 136.111 157.769 137.06 155.16 137.929L154.765 138.087C152.473 138.799 150.734 140.458 149.864 142.672C149.706 142.751 149.627 142.83 149.548 142.83C149.548 142.83 149.39 142.83 149.232 142.514C148.521 141.723 147.335 141.486 146.307 141.881C145.675 142.197 144.41 142.435 144.173 142.276C143.857 141.486 143.146 140.854 142.276 140.696C142.039 140.696 141.802 140.537 141.565 140.458C142.83 138.245 146.228 137.218 147.651 136.981C151.129 136.269 157.531 135.084 158.717 129.788C159.112 128.049 158.717 126.152 157.531 124.097C156.899 122.911 156.03 121.883 155.16 120.856C153.658 118.959 152.157 117.141 152.315 115.481C152.473 114.058 151.366 112.794 150.022 112.715C148.6 112.556 147.335 113.663 147.256 115.007C146.94 118.801 149.311 121.725 151.208 124.097C151.919 125.045 152.631 125.915 153.105 126.705C153.737 127.891 153.816 128.444 153.737 128.681C153.263 130.657 148.837 131.527 146.624 131.922C146.307 131.922 139.194 133.187 136.743 138.561C136.111 139.984 136.111 141.486 136.743 142.672C137.534 144.173 139.036 144.964 140.142 145.359C140.695 145.991 141.328 146.545 142.118 146.861C143.699 147.493 145.517 147.335 146.782 147.019C147.809 147.651 148.758 147.809 149.548 147.809H149.627C152.078 147.809 153.737 145.991 154.054 145.675C154.291 145.359 154.528 145.043 154.607 144.648C154.844 143.778 155.476 143.067 156.346 142.83H156.741C159.349 141.881 163.381 140.617 167.965 137.376C173.34 133.582 171.522 126.389 169.388 121.488C173.182 112.556 176.897 101.174 172.787 91.215H173.182Z" fill="#007E91"/>
<path id="Vector_6" d="M16.1247 90.5036L5.2168 90.1874V32.4865C5.2168 27.5858 9.16893 23.6337 14.0696 23.6337H51.4566C52.8794 23.6337 54.065 22.4481 54.065 21.0253C54.065 19.6025 52.8794 18.4169 51.4566 18.4169H42.9201V11.5402C42.9201 7.98329 45.8446 5.05872 49.4015 5.05872H84.6545C88.2114 5.05872 91.136 7.98329 91.136 11.5402V21.0253C91.136 22.4481 92.3216 23.6337 93.7444 23.6337H109.237V50.35C109.237 51.7728 110.422 52.9584 111.845 52.9584C113.268 52.9584 114.453 51.7728 114.453 50.35V21.1043C114.453 18.575 116.509 16.5989 118.959 16.5989H124.808C127.337 16.5989 129.313 18.654 129.313 21.1043V58.4914C129.313 59.9142 130.499 61.0998 131.922 61.0998C133.345 61.0998 134.53 59.9142 134.53 58.4914V21.1043C134.53 15.7295 130.183 11.3821 124.808 11.3821H118.959C114.533 11.3821 110.738 14.3857 109.632 18.4959H96.4318V11.6192C96.4318 5.2168 91.215 0 84.8126 0H49.5596C43.1572 0 37.9404 5.2168 37.9404 11.6192V18.4959H13.9905C6.24435 18.4959 0 24.7403 0 32.4865V92.6378C0 94.0605 1.10659 95.1671 2.52936 95.2462L15.9666 95.5623C17.3893 95.5623 18.4959 94.4557 18.4959 93.033C18.4959 91.6102 17.3893 90.4246 15.9666 90.4246L16.1247 90.5036Z" fill="#007E91"/>
<path id="Vector_7" d="M64.6567 40.3907C66.2376 40.0745 67.8975 39.9955 69.5573 40.2326C70.9801 40.3907 72.2448 39.4422 72.4819 38.0194C72.719 36.5967 71.6915 35.332 70.2687 35.0949C68.0555 34.7787 65.8423 34.8577 63.6292 35.332C53.1956 37.5452 46.556 47.8997 48.8482 58.2543C49.9548 63.313 52.9584 67.6604 57.3848 70.5059C57.78 70.743 58.2543 70.9011 58.7285 70.9011C59.598 70.9011 60.3884 70.5059 60.9417 69.7155C61.7321 68.5298 61.3369 66.949 60.1513 66.1585C56.9105 64.1034 54.6974 60.9417 53.9069 57.2267C52.247 49.5596 57.1477 42.0506 64.7357 40.3907H64.6567Z" fill="#007E91"/>
<path id="Vector_8" d="M81.8879 41.2602C80.9394 40.2326 79.2795 40.1536 78.2519 41.1021C77.2244 42.0506 77.1453 43.7105 78.0938 44.738C78.8843 45.6075 79.5957 46.6351 80.149 47.6626C80.6232 48.5321 81.4927 49.0063 82.4412 49.0063C82.8364 49.0063 83.2316 48.9273 83.6268 48.6902C84.8915 48.0578 85.3658 46.477 84.7334 45.2123C83.943 43.7895 82.9945 42.4458 81.8879 41.1811V41.2602Z" fill="#007E91"/>
<path id="Vector_9" d="M93.3492 60.3884C94.7719 60.5465 96.0366 59.598 96.2737 58.1752C98.4869 42.1296 87.1838 27.1906 71.1382 24.9774C55.0926 22.7642 40.1536 34.0673 37.9404 50.1129C35.7272 66.1585 47.0303 81.0975 63.0759 83.3107C63.234 83.3107 63.313 83.3107 63.3921 83.3107C64.6567 83.3107 65.7633 82.3622 65.9214 81.0975C66.0795 79.6748 65.131 78.4101 63.7082 78.173C50.4291 76.355 41.1021 64.1034 42.9991 50.8243C44.8961 37.5452 57.0687 28.2181 70.3478 30.1152C83.6269 31.9331 92.9539 44.1847 91.0569 57.4639C90.8988 58.8866 91.8473 60.1513 93.2701 60.3884H93.3492Z" fill="#007E91"/>
</g>
</g>
<defs>
<clipPath id="clip0_675_1229">
<rect width="175" height="148.047" fill="white"/>
</clipPath>
</defs>
</svg>
