<svg width="175" height="184" viewBox="0 0 175 184" fill="none" xmlns="http://www.w3.org/2000/svg">
<g clip-path="url(#clip0_675_1110)">
<path d="M16.5186 167.105H85.8243V35.9865H16.5186V166.987V167.105ZM23.102 160.573V134.326H79.2409V160.573H23.102ZM79.2409 104.871V127.793H23.102V104.871H79.2409ZM23.102 98.3392V75.4171H79.2409V98.3392H23.102ZM79.2409 42.6374V68.8849H23.102V42.6374H79.2409Z" fill="#007E91"/>
<path d="M108.926 140.858C128.916 140.858 145.195 124.705 145.195 104.871C145.195 85.0372 128.916 68.8849 108.926 68.8849C106.652 68.8849 104.497 69.1224 102.343 69.5975V36.224C102.343 27.1977 94.9213 19.8341 85.8242 19.8341H79.2408V6.53219C79.2408 2.96918 76.2483 0 72.6573 0H29.6854C26.0944 0 23.1019 2.96918 23.1019 6.53219V19.5966H16.5185C7.42134 19.5966 0 26.9601 0 35.9864V166.987C0 176.013 7.42134 183.376 16.5185 183.376H85.8242C94.9213 183.376 102.343 176.013 102.343 166.987V140.145C104.497 140.501 106.772 140.858 108.926 140.858ZM29.6854 6.53219H72.6573V19.5966H29.6854V6.53219ZM95.7592 167.105C95.7592 172.569 91.3304 176.963 85.8242 176.963H16.5185C11.0123 176.963 6.58345 172.569 6.58345 167.105V35.9864C6.58345 30.5231 11.0123 26.1288 16.5185 26.1288H85.8242C91.3304 26.1288 95.7592 30.5231 95.7592 35.9864V166.987V167.105ZM108.926 75.4171C125.325 75.4171 138.611 88.6002 138.611 104.871C138.611 121.142 125.325 134.326 108.926 134.326C106.652 134.326 104.497 133.969 102.343 133.494V76.1297C104.497 75.6546 106.652 75.2983 108.926 75.2983V75.4171Z" fill="#007E91"/>
<path d="M122.213 104.871C122.213 105.703 122.213 106.534 121.973 107.365L128.437 108.553C128.677 107.365 128.796 106.178 128.796 104.871C128.796 97.2703 124.607 90.6193 117.904 87.2938L114.911 93.1134C119.34 95.2512 122.093 99.7644 122.093 104.871H122.213Z" fill="#007E91"/>
<path d="M175 101.546H151.898V108.078H175V101.546Z" fill="#007E91"/>
<path d="M115.51 39.3119H108.926V62.2339H115.51V39.3119Z" fill="#007E91"/>
<path d="M144.398 48.0942L130.943 65.6947L136.189 69.6422L149.643 52.0417L144.398 48.0942Z" fill="#007E91"/>
<path d="M169.829 71.2611L148.054 79.9248L150.504 85.9877L172.28 77.324L169.829 71.2611Z" fill="#007E91"/>
<path d="M115.51 147.39H108.926V170.312H115.51V147.39Z" fill="#007E91"/>
<path d="M136.167 140.048L130.922 143.996L144.376 161.596L149.622 157.649L136.167 140.048Z" fill="#007E91"/>
<path d="M150.441 123.648L147.991 129.711L169.766 138.375L172.217 132.312L150.441 123.648Z" fill="#007E91"/>
</g>
<defs>
<clipPath id="clip0_675_1110">
<rect width="175" height="183.495" fill="white"/>
</clipPath>
</defs>
</svg>
