<svg width="46" height="46" viewBox="0 0 46 46" fill="none" xmlns="http://www.w3.org/2000/svg">
<mask id="mask0_69_1567" style="mask-type:luminance" maskUnits="userSpaceOnUse" x="0" y="0" width="46" height="46">
<path d="M44.7449 44.7449V1H1V44.7449H44.7449Z" fill="white" stroke="white" stroke-width="2"/>
</mask>
<g mask="url(#mask0_69_1567)">
<path d="M42.7855 31.4287V42.3943C42.7855 43.8746 41.5854 45.0747 40.1052 45.0747H5.64032C4.16005 45.0747 2.95996 43.8746 2.95996 42.3943V38.6657" stroke="#56CCF2" stroke-width="2" stroke-miterlimit="10" stroke-linecap="round" stroke-linejoin="round"/>
<path d="M32.8131 42.3943H5.64455C4.16177 42.3943 2.95972 41.1922 2.95972 39.7095V6.41702C2.95972 4.93424 4.16177 3.73218 5.64455 3.73218H40.1004C41.5832 3.73218 42.7853 4.93424 42.7853 6.41702V32.4221C42.7853 33.1342 42.5024 33.8171 41.9989 34.3206L34.7116 41.6079C34.208 42.1114 33.5252 42.3943 32.8131 42.3943Z" stroke="#56CCF2" stroke-width="2" stroke-miterlimit="10" stroke-linecap="round" stroke-linejoin="round"/>
<path d="M31.7129 42.3943C32.9278 42.3943 33.9128 41.4094 33.9128 40.1944V35.7215C33.9128 34.5066 34.8976 33.5217 36.1125 33.5217H40.5855C41.8004 33.5217 42.7853 32.5368 42.7853 31.3219" stroke="#56CCF2" stroke-width="2" stroke-miterlimit="10" stroke-linecap="round" stroke-linejoin="round"/>
<path d="M10.8821 13.3081H2.95947" stroke="#56CCF2" stroke-width="2" stroke-miterlimit="10" stroke-linecap="round" stroke-linejoin="round"/>
<path d="M42.7851 13.3081H13.5625" stroke="#56CCF2" stroke-width="2" stroke-miterlimit="10" stroke-linecap="round" stroke-linejoin="round"/>
<path d="M10.5471 7.74023C9.79173 7.74023 9.17944 7.12795 9.17944 6.37262V2.03767C9.17944 1.28235 9.79173 0.670061 10.5471 0.670061H10.8547C11.61 0.670061 12.2223 1.28235 12.2223 2.03767V3.73229" stroke="#56CCF2" stroke-width="2" stroke-miterlimit="10" stroke-linecap="round" stroke-linejoin="round"/>
<path d="M34.8901 7.74023C34.1347 7.74023 33.5225 7.12795 33.5225 6.37262V2.03767C33.5225 1.28235 34.1347 0.670061 34.8901 0.670061H35.1977C35.953 0.670061 36.5653 1.28235 36.5653 2.03767V3.73229" stroke="#56CCF2" stroke-width="2" stroke-miterlimit="10" stroke-linecap="round" stroke-linejoin="round"/>
<path d="M10.8093 21.7959H7.61842C7.26595 21.7959 6.98022 21.5102 6.98022 21.1577V17.9668C6.98022 17.6144 7.26595 17.3286 7.61842 17.3286H10.8093C11.1618 17.3286 11.4475 17.6144 11.4475 17.9668V21.1577C11.4475 21.5102 11.1618 21.7959 10.8093 21.7959Z" stroke="#56CCF2" stroke-width="2" stroke-miterlimit="10" stroke-linecap="round" stroke-linejoin="round"/>
<path d="M19.915 21.7959H16.7241C16.3717 21.7959 16.0859 21.5102 16.0859 21.1577V17.9668C16.0859 17.6144 16.3717 17.3286 16.7241 17.3286H19.915C20.2675 17.3286 20.5532 17.6144 20.5532 17.9668V21.1577C20.5532 21.5102 20.2675 21.7959 19.915 21.7959Z" stroke="#56CCF2" stroke-width="2" stroke-miterlimit="10" stroke-linecap="round" stroke-linejoin="round"/>
<path d="M29.0207 21.7959H25.8298C25.4774 21.7959 25.1917 21.5102 25.1917 21.1577V17.9668C25.1917 17.6144 25.4774 17.3286 25.8298 17.3286H29.0207C29.3732 17.3286 29.6589 17.6144 29.6589 17.9668V21.1577C29.6589 21.5102 29.3732 21.7959 29.0207 21.7959Z" stroke="#56CCF2" stroke-width="2" stroke-miterlimit="10" stroke-linecap="round" stroke-linejoin="round"/>
<path d="M38.1264 21.7959H34.9356C34.5831 21.7959 34.2974 21.5102 34.2974 21.1577V17.9668C34.2974 17.6144 34.5831 17.3286 34.9356 17.3286H38.1264C38.4789 17.3286 38.7646 17.6144 38.7646 17.9668V21.1577C38.7646 21.5102 38.4789 21.7959 38.1264 21.7959Z" stroke="#56CCF2" stroke-width="2" stroke-miterlimit="10" stroke-linecap="round" stroke-linejoin="round"/>
<path d="M10.8093 30.085H7.61842C7.26595 30.085 6.98022 29.7992 6.98022 29.4468V26.2559C6.98022 25.9034 7.26595 25.6177 7.61842 25.6177H10.8093C11.1618 25.6177 11.4475 25.9034 11.4475 26.2559V29.4468C11.4475 29.7992 11.1618 30.085 10.8093 30.085Z" stroke="#56CCF2" stroke-width="2" stroke-miterlimit="10" stroke-linecap="round" stroke-linejoin="round"/>
<path d="M19.915 30.085H16.7241C16.3717 30.085 16.0859 29.7992 16.0859 29.4468V26.2559C16.0859 25.9034 16.3717 25.6177 16.7241 25.6177H19.915C20.2675 25.6177 20.5532 25.9034 20.5532 26.2559V29.4468C20.5532 29.7992 20.2675 30.085 19.915 30.085Z" stroke="#56CCF2" stroke-width="2" stroke-miterlimit="10" stroke-linecap="round" stroke-linejoin="round"/>
<path d="M29.0207 30.085H25.8298C25.4774 30.085 25.1917 29.7992 25.1917 29.4468V26.2559C25.1917 25.9034 25.4774 25.6177 25.8298 25.6177H29.0207C29.3732 25.6177 29.6589 25.9034 29.6589 26.2559V29.4468C29.6589 29.7992 29.3732 30.085 29.0207 30.085Z" stroke="#56CCF2" stroke-width="2" stroke-miterlimit="10" stroke-linecap="round" stroke-linejoin="round"/>
<path d="M38.1264 30.2839H34.9356C34.5831 30.2839 34.2974 29.9982 34.2974 29.6457V26.4549C34.2974 26.1024 34.5831 25.8167 34.9356 25.8167H38.1264C38.4789 25.8167 38.7646 26.1024 38.7646 26.4549V29.6457C38.7646 29.9982 38.4789 30.2839 38.1264 30.2839Z" stroke="#56CCF2" stroke-width="2" stroke-miterlimit="10" stroke-linecap="round" stroke-linejoin="round"/>
<path d="M10.8093 38.3738H7.61842C7.26595 38.3738 6.98022 38.0881 6.98022 37.7356V34.5447C6.98022 34.1922 7.26595 33.9065 7.61842 33.9065H10.8093C11.1618 33.9065 11.4475 34.1922 11.4475 34.5447V37.7356C11.4475 38.0881 11.1618 38.3738 10.8093 38.3738Z" stroke="#56CCF2" stroke-width="2" stroke-miterlimit="10" stroke-linecap="round" stroke-linejoin="round"/>
<path d="M19.915 38.3738H16.7241C16.3717 38.3738 16.0859 38.0881 16.0859 37.7356V34.5447C16.0859 34.1922 16.3717 33.9065 16.7241 33.9065H19.915C20.2675 33.9065 20.5532 34.1922 20.5532 34.5447V37.7356C20.5532 38.0881 20.2675 38.3738 19.915 38.3738Z" stroke="#56CCF2" stroke-width="2" stroke-miterlimit="10" stroke-linecap="round" stroke-linejoin="round"/>
<path d="M25.1917 35.4649V34.5447C25.1917 34.1921 25.4774 33.9065 25.8298 33.9065H29.0207C29.3732 33.9065 29.6589 34.1921 29.6589 34.5447V37.7356C29.6589 38.0881 29.3732 38.3738 29.0207 38.3738H25.8298C25.4774 38.3738 25.1917 38.0881 25.1917 37.7356" stroke="#56CCF2" stroke-width="2" stroke-miterlimit="10" stroke-linecap="round" stroke-linejoin="round"/>
</g>
</svg>
