<svg width="139" height="175" viewBox="0 0 139 175" fill="none" xmlns="http://www.w3.org/2000/svg">
<g id="Asset 23 1" clip-path="url(#clip0_675_1126)">
<g id="Layer_1-2">
<path id="Vector" d="M82.1766 79.4663C82.1766 72.3037 76.369 66.4961 69.2064 66.4961C64.1732 66.4961 59.5272 69.3999 57.5914 73.8523V74.1427L59.8176 57.0105L90.1135 21.391C92.1461 19.068 93.2109 16.0675 93.2109 12.9701C93.2109 5.80752 87.4033 0 80.2407 0C77.0466 0 74.046 1.1615 71.8198 3.09735L34.6517 36.1034C28.5538 41.5238 24.4885 48.88 23.1334 56.9137L12.9702 118.28C12.3895 121.571 10.5504 124.475 7.84027 126.41L-0.0966797 131.928L4.16217 138.025L12.0991 132.508C16.4548 129.508 19.4553 124.765 20.3264 119.538L30.4896 58.172C31.5543 51.7837 34.7485 45.9762 39.5881 41.6206L76.7562 8.71128C77.7241 7.84016 78.8856 7.45299 80.2407 7.45299C83.3381 7.45299 85.7579 9.96958 85.7579 12.9701C85.7579 14.6156 84.9835 15.8739 84.4028 16.6482L52.655 53.9132L46.5571 98.4375L40.4592 112.182L47.2346 115.183L64.27 76.8529C65.0444 75.1106 66.9802 73.9491 69.1096 73.9491C72.207 73.9491 74.6268 76.4657 74.6268 79.4663C74.6268 80.047 74.53 80.7246 74.3364 81.3053L66.3027 104.245C64.6572 108.988 63.6893 114.021 63.3989 119.248C62.2374 140.929 55.3652 152.931 49.7512 159.126C45.686 163.579 39.7816 166.192 33.3934 166.192H4.54934V173.548H33.4902C42.0079 173.548 49.9448 170.064 55.3652 164.063C61.7534 156.997 69.5936 143.446 70.8519 119.635C71.0455 115.183 71.9166 110.73 73.3685 106.665L81.4022 83.7251C81.8862 82.2732 82.1766 80.9181 82.1766 79.4663Z" fill="#007E91"/>
<path id="Vector_2" d="M126.798 156.416C123.216 151.48 117.699 148.479 111.795 147.995V132.799C121.474 131.347 135.606 124.378 137.445 104.535L130.088 103.858C128.637 119.635 117.796 124.087 111.892 125.249C113.537 100.47 129.508 99.8894 130.282 99.8894V92.5332C130.282 92.5332 119.345 92.7268 111.795 102.696V92.146C117.506 91.2749 128.153 87.984 132.315 76.0786L125.346 73.6588C122.732 81.1117 116.247 83.7251 111.988 84.5963C113.44 69.8839 122.442 67.1737 126.41 66.6897L125.539 59.3335C123.507 59.5271 117.022 60.7854 111.698 66.3994V60.495C113.15 58.3656 115.376 53.6228 115.376 45.2987C115.376 31.7478 105.503 24.198 105.213 24.0044C102.212 21.5846 97.3728 22.1654 94.953 24.9724C94.7594 25.2627 89.5326 31.3606 89.5326 43.2661C89.5326 53.8164 98.0503 59.7207 104.342 62.0437V73.9491C100.373 69.6903 95.4369 67.4641 90.5973 66.8833L89.7262 74.2395C93.7915 74.7235 102.696 77.4336 104.148 92.146C99.8893 91.1781 93.4043 88.6615 90.7909 81.3053L83.8219 83.8219C87.9839 95.6305 98.631 98.9215 104.342 99.7926V114.021C96.792 104.051 86.0481 103.858 85.8545 103.858C81.7892 103.858 78.4983 107.149 78.4983 111.214C78.4983 136.961 96.5016 142.768 104.342 144.123V148.285C98.4375 148.769 92.8235 151.867 89.339 156.706C86.6288 160.481 82.37 165.708 77.4336 169.58L81.9828 175.387C87.5 171.032 92.2428 165.224 95.2433 161.062C97.7599 157.577 101.825 155.545 106.084 155.545H110.053C114.311 155.545 118.377 157.577 120.893 161.062C123.894 165.224 128.637 171.032 134.154 175.387L138.703 169.58C133.863 165.708 129.605 160.481 126.798 156.706V156.416ZM96.9856 43.1693C96.9856 34.1676 100.47 29.812 100.76 29.7152C101.051 29.9088 108.117 35.4259 108.117 45.2019C108.117 49.9447 107.246 53.0421 106.471 54.7843C102.987 53.4292 97.0824 50.0415 97.0824 43.1693H96.9856ZM85.8545 110.924C86.532 110.924 102.6 111.504 104.245 136.38C97.8567 135.122 85.8545 130.185 85.8545 110.924Z" fill="#007E91"/>
</g>
</g>
<defs>
<clipPath id="clip0_675_1126">
<rect width="138.606" height="175" fill="white"/>
</clipPath>
</defs>
</svg>
